<svg width="420" height="618" viewBox="0 0 420 618" fill="none" xmlns="http://www.w3.org/2000/svg">
<path d="M0 53.6974C0 26.5508 21.661 4.36348 48.7999 3.71191L203.406 0L371.127 3.7816C398.295 4.39416 420 26.5938 420 53.7689V551.138C420 577.922 398.894 599.949 372.135 601.092L210.507 608L47.8753 601.083C21.1116 599.945 0 577.916 0 551.128V53.6974Z" fill="white"/>
<path d="M35.9691 47.2H40.7211V64H35.9691V47.2ZM53.8579 50.776C55.4739 50.776 56.7699 51.256 57.7459 52.216C58.7379 53.176 59.2339 54.624 59.2339 56.56V64H54.6739V57.304C54.6739 55.528 53.9619 54.64 52.5379 54.64C51.7539 54.64 51.1219 54.896 50.6419 55.408C50.1779 55.92 49.9459 56.688 49.9459 57.712V64H45.3859V50.992H49.7299V52.408C50.2419 51.88 50.8499 51.48 51.5539 51.208C52.2579 50.92 53.0259 50.776 53.8579 50.776ZM77.0664 50.992L71.6904 64H66.9864L61.6344 50.992H66.3144L69.4344 58.936L72.7224 50.992H77.0664ZM92.6897 57.52C92.6897 57.552 92.6657 57.928 92.6177 58.648H83.1617C83.3537 59.32 83.7217 59.84 84.2657 60.208C84.8257 60.56 85.5217 60.736 86.3537 60.736C86.9777 60.736 87.5137 60.648 87.9617 60.472C88.4257 60.296 88.8897 60.008 89.3537 59.608L91.7537 62.104C90.4897 63.512 88.6417 64.216 86.2097 64.216C84.6897 64.216 83.3537 63.928 82.2017 63.352C81.0497 62.776 80.1537 61.976 79.5137 60.952C78.8897 59.928 78.5777 58.768 78.5777 57.472C78.5777 56.192 78.8817 55.048 79.4897 54.04C80.1137 53.016 80.9697 52.216 82.0577 51.64C83.1457 51.064 84.3697 50.776 85.7297 50.776C87.0257 50.776 88.2017 51.048 89.2577 51.592C90.3137 52.12 91.1457 52.896 91.7537 53.92C92.3777 54.928 92.6897 56.128 92.6897 57.52ZM85.7537 54.016C85.0497 54.016 84.4577 54.216 83.9777 54.616C83.5137 55.016 83.2177 55.56 83.0897 56.248H88.4177C88.2897 55.56 87.9857 55.016 87.5057 54.616C87.0417 54.216 86.4577 54.016 85.7537 54.016ZM101.02 64.216C99.9321 64.216 98.8601 64.096 97.8041 63.856C96.7481 63.6 95.9001 63.272 95.2601 62.872L96.6281 59.752C97.2201 60.12 97.9241 60.416 98.7401 60.64C99.5561 60.848 100.364 60.952 101.164 60.952C101.9 60.952 102.42 60.88 102.724 60.736C103.044 60.576 103.204 60.352 103.204 60.064C103.204 59.776 103.012 59.576 102.628 59.464C102.26 59.336 101.668 59.216 100.852 59.104C99.8121 58.976 98.9241 58.808 98.1881 58.6C97.4681 58.392 96.8441 58.008 96.3161 57.448C95.7881 56.888 95.5241 56.104 95.5241 55.096C95.5241 54.264 95.7721 53.528 96.2681 52.888C96.7641 52.232 97.4841 51.72 98.4281 51.352C99.3881 50.968 100.532 50.776 101.86 50.776C102.804 50.776 103.74 50.872 104.668 51.064C105.596 51.256 106.372 51.528 106.996 51.88L105.628 54.976C104.476 54.336 103.228 54.016 101.884 54.016C101.164 54.016 100.636 54.104 100.3 54.28C99.9641 54.44 99.7961 54.656 99.7961 54.928C99.7961 55.232 99.9801 55.448 100.348 55.576C100.716 55.688 101.324 55.808 102.172 55.936C103.244 56.096 104.132 56.28 104.836 56.488C105.54 56.696 106.148 57.08 106.66 57.64C107.188 58.184 107.452 58.952 107.452 59.944C107.452 60.76 107.204 61.496 106.708 62.152C106.212 62.792 105.476 63.296 104.5 63.664C103.54 64.032 102.38 64.216 101.02 64.216ZM119.893 63.472C119.509 63.712 119.037 63.896 118.477 64.024C117.933 64.152 117.349 64.216 116.725 64.216C115.029 64.216 113.725 63.8 112.813 62.968C111.901 62.136 111.445 60.896 111.445 59.248V54.88H109.549V51.472H111.445V48.088H116.005V51.472H118.981V54.88H116.005V59.2C116.005 59.664 116.125 60.032 116.365 60.304C116.621 60.56 116.957 60.688 117.373 60.688C117.901 60.688 118.365 60.552 118.765 60.28L119.893 63.472ZM140.096 50.776C141.696 50.776 142.968 51.256 143.912 52.216C144.872 53.176 145.352 54.624 145.352 56.56V64H140.792V57.304C140.792 56.392 140.616 55.72 140.264 55.288C139.928 54.856 139.448 54.64 138.824 54.64C138.136 54.64 137.584 54.88 137.168 55.36C136.752 55.84 136.544 56.568 136.544 57.544V64H131.984V57.304C131.984 55.528 131.328 54.64 130.016 54.64C129.312 54.64 128.752 54.88 128.336 55.36C127.92 55.84 127.712 56.568 127.712 57.544V64H123.152V50.992H127.496V52.36C127.976 51.832 128.544 51.44 129.2 51.184C129.872 50.912 130.6 50.776 131.384 50.776C132.296 50.776 133.112 50.944 133.832 51.28C134.552 51.616 135.136 52.128 135.584 52.816C136.096 52.16 136.744 51.656 137.528 51.304C138.312 50.952 139.168 50.776 140.096 50.776ZM163.213 57.52C163.213 57.552 163.189 57.928 163.141 58.648H153.685C153.877 59.32 154.245 59.84 154.789 60.208C155.349 60.56 156.045 60.736 156.877 60.736C157.501 60.736 158.037 60.648 158.485 60.472C158.949 60.296 159.413 60.008 159.877 59.608L162.277 62.104C161.013 63.512 159.165 64.216 156.733 64.216C155.213 64.216 153.877 63.928 152.725 63.352C151.573 62.776 150.677 61.976 150.037 60.952C149.413 59.928 149.101 58.768 149.101 57.472C149.101 56.192 149.405 55.048 150.013 54.04C150.637 53.016 151.493 52.216 152.581 51.64C153.669 51.064 154.893 50.776 156.253 50.776C157.549 50.776 158.725 51.048 159.781 51.592C160.837 52.12 161.669 52.896 162.277 53.92C162.901 54.928 163.213 56.128 163.213 57.52ZM156.277 54.016C155.573 54.016 154.981 54.216 154.501 54.616C154.037 55.016 153.741 55.56 153.613 56.248H158.941C158.813 55.56 158.509 55.016 158.029 54.616C157.565 54.216 156.981 54.016 156.277 54.016ZM175.288 50.776C176.904 50.776 178.2 51.256 179.176 52.216C180.168 53.176 180.664 54.624 180.664 56.56V64H176.104V57.304C176.104 55.528 175.392 54.64 173.968 54.64C173.184 54.64 172.552 54.896 172.072 55.408C171.608 55.92 171.376 56.688 171.376 57.712V64H166.816V50.992H171.16V52.408C171.672 51.88 172.28 51.48 172.984 51.208C173.688 50.92 174.456 50.776 175.288 50.776ZM194.003 63.472C193.619 63.712 193.147 63.896 192.587 64.024C192.043 64.152 191.459 64.216 190.835 64.216C189.139 64.216 187.835 63.8 186.923 62.968C186.011 62.136 185.555 60.896 185.555 59.248V54.88H183.659V51.472H185.555V48.088H190.115V51.472H193.091V54.88H190.115V59.2C190.115 59.664 190.235 60.032 190.475 60.304C190.731 60.56 191.067 60.688 191.483 60.688C192.011 60.688 192.475 60.552 192.875 60.28L194.003 63.472ZM213.641 47.2C215.161 47.2 216.481 47.456 217.601 47.968C218.721 48.464 219.585 49.184 220.193 50.128C220.801 51.056 221.105 52.152 221.105 53.416C221.105 54.68 220.801 55.776 220.193 56.704C219.585 57.632 218.721 58.352 217.601 58.864C216.481 59.36 215.161 59.608 213.641 59.608H210.713V64H205.961V47.2H213.641ZM213.353 55.864C214.329 55.864 215.065 55.656 215.561 55.24C216.057 54.808 216.305 54.2 216.305 53.416C216.305 52.632 216.057 52.024 215.561 51.592C215.065 51.16 214.329 50.944 213.353 50.944H210.713V55.864H213.353ZM237.979 57.52C237.979 57.552 237.955 57.928 237.907 58.648H228.451C228.643 59.32 229.011 59.84 229.555 60.208C230.115 60.56 230.811 60.736 231.643 60.736C232.267 60.736 232.803 60.648 233.251 60.472C233.715 60.296 234.179 60.008 234.643 59.608L237.043 62.104C235.779 63.512 233.931 64.216 231.499 64.216C229.979 64.216 228.643 63.928 227.491 63.352C226.339 62.776 225.443 61.976 224.803 60.952C224.179 59.928 223.867 58.768 223.867 57.472C223.867 56.192 224.171 55.048 224.779 54.04C225.403 53.016 226.259 52.216 227.347 51.64C228.435 51.064 229.659 50.776 231.019 50.776C232.315 50.776 233.491 51.048 234.547 51.592C235.603 52.12 236.435 52.896 237.043 53.92C237.667 54.928 237.979 56.128 237.979 57.52ZM231.043 54.016C230.339 54.016 229.747 54.216 229.267 54.616C228.803 55.016 228.507 55.56 228.379 56.248H233.707C233.579 55.56 233.275 55.016 232.795 54.616C232.331 54.216 231.747 54.016 231.043 54.016ZM245.925 52.552C246.389 51.96 246.989 51.52 247.725 51.232C248.477 50.928 249.333 50.776 250.293 50.776V54.88C249.877 54.832 249.533 54.808 249.261 54.808C248.285 54.808 247.517 55.072 246.957 55.6C246.413 56.128 246.141 56.936 246.141 58.024V64H241.581V50.992H245.925V52.552ZM258.69 51.472H261.786V54.88H258.81V64H254.25V54.88H252.354V51.472H254.25V51.136C254.25 49.552 254.722 48.296 255.666 47.368C256.626 46.44 257.962 45.976 259.674 45.976C260.25 45.976 260.81 46.032 261.354 46.144C261.898 46.256 262.346 46.424 262.698 46.648L261.57 49.864C261.122 49.608 260.666 49.48 260.202 49.48C259.722 49.48 259.346 49.624 259.074 49.912C258.818 50.2 258.69 50.624 258.69 51.184V51.472ZM271.359 64.216C269.967 64.216 268.711 63.928 267.591 63.352C266.471 62.776 265.591 61.976 264.951 60.952C264.327 59.928 264.015 58.768 264.015 57.472C264.015 56.192 264.327 55.04 264.951 54.016C265.591 52.992 266.463 52.2 267.567 51.64C268.687 51.064 269.951 50.776 271.359 50.776C272.767 50.776 274.031 51.064 275.151 51.64C276.271 52.2 277.143 52.992 277.767 54.016C278.391 55.024 278.703 56.176 278.703 57.472C278.703 58.768 278.391 59.928 277.767 60.952C277.143 61.976 276.271 62.776 275.151 63.352C274.031 63.928 272.767 64.216 271.359 64.216ZM271.359 60.592C272.159 60.592 272.815 60.32 273.327 59.776C273.839 59.216 274.095 58.448 274.095 57.472C274.095 56.512 273.839 55.76 273.327 55.216C272.815 54.672 272.159 54.4 271.359 54.4C270.559 54.4 269.903 54.672 269.391 55.216C268.879 55.76 268.623 56.512 268.623 57.472C268.623 58.448 268.879 59.216 269.391 59.776C269.903 60.32 270.559 60.592 271.359 60.592ZM286.66 52.552C287.124 51.96 287.724 51.52 288.46 51.232C289.212 50.928 290.068 50.776 291.028 50.776V54.88C290.612 54.832 290.268 54.808 289.996 54.808C289.02 54.808 288.252 55.072 287.692 55.6C287.148 56.128 286.876 56.936 286.876 58.024V64H282.316V50.992H286.66V52.552ZM311.353 50.776C312.953 50.776 314.225 51.256 315.169 52.216C316.129 53.176 316.609 54.624 316.609 56.56V64H312.049V57.304C312.049 56.392 311.873 55.72 311.521 55.288C311.185 54.856 310.705 54.64 310.081 54.64C309.393 54.64 308.841 54.88 308.425 55.36C308.009 55.84 307.801 56.568 307.801 57.544V64H303.241V57.304C303.241 55.528 302.585 54.64 301.273 54.64C300.569 54.64 300.009 54.88 299.593 55.36C299.177 55.84 298.969 56.568 298.969 57.544V64H294.409V50.992H298.753V52.36C299.233 51.832 299.801 51.44 300.457 51.184C301.129 50.912 301.857 50.776 302.641 50.776C303.553 50.776 304.369 50.944 305.089 51.28C305.809 51.616 306.393 52.128 306.841 52.816C307.353 52.16 308.001 51.656 308.785 51.304C309.569 50.952 310.425 50.776 311.353 50.776ZM326.531 50.776C328.691 50.776 330.339 51.272 331.475 52.264C332.611 53.24 333.179 54.744 333.179 56.776V64H328.931V62.32C328.275 63.584 326.995 64.216 325.091 64.216C324.083 64.216 323.211 64.04 322.475 63.688C321.739 63.336 321.179 62.864 320.795 62.272C320.427 61.664 320.243 60.976 320.243 60.208C320.243 58.976 320.715 58.024 321.659 57.352C322.603 56.664 324.059 56.32 326.027 56.32H328.619C328.539 54.944 327.619 54.256 325.859 54.256C325.235 54.256 324.603 54.36 323.963 54.568C323.323 54.76 322.779 55.032 322.331 55.384L320.795 52.288C321.515 51.808 322.387 51.44 323.411 51.184C324.451 50.912 325.491 50.776 326.531 50.776ZM326.363 61.336C326.891 61.336 327.355 61.208 327.755 60.952C328.155 60.696 328.443 60.32 328.619 59.824V58.696H326.651C325.323 58.696 324.659 59.136 324.659 60.016C324.659 60.416 324.811 60.736 325.115 60.976C325.419 61.216 325.835 61.336 326.363 61.336ZM346.03 50.776C347.646 50.776 348.942 51.256 349.918 52.216C350.91 53.176 351.406 54.624 351.406 56.56V64H346.846V57.304C346.846 55.528 346.134 54.64 344.71 54.64C343.926 54.64 343.294 54.896 342.814 55.408C342.35 55.92 342.118 56.688 342.118 57.712V64H337.558V50.992H341.902V52.408C342.414 51.88 343.022 51.48 343.726 51.208C344.43 50.92 345.198 50.776 346.03 50.776ZM362.604 64.216C361.164 64.216 359.876 63.928 358.74 63.352C357.604 62.776 356.716 61.976 356.076 60.952C355.452 59.928 355.14 58.768 355.14 57.472C355.14 56.176 355.452 55.024 356.076 54.016C356.716 52.992 357.604 52.2 358.74 51.64C359.876 51.064 361.164 50.776 362.604 50.776C364.076 50.776 365.348 51.096 366.42 51.736C367.492 52.36 368.252 53.232 368.7 54.352L365.172 56.152C364.58 54.984 363.716 54.4 362.58 54.4C361.764 54.4 361.084 54.672 360.54 55.216C360.012 55.76 359.748 56.512 359.748 57.472C359.748 58.448 360.012 59.216 360.54 59.776C361.084 60.32 361.764 60.592 362.58 60.592C363.716 60.592 364.58 60.008 365.172 58.84L368.7 60.64C368.252 61.76 367.492 62.64 366.42 63.28C365.348 63.904 364.076 64.216 362.604 64.216ZM385.073 57.52C385.073 57.552 385.049 57.928 385.001 58.648H375.545C375.737 59.32 376.105 59.84 376.648 60.208C377.209 60.56 377.905 60.736 378.737 60.736C379.361 60.736 379.897 60.648 380.345 60.472C380.809 60.296 381.273 60.008 381.737 59.608L384.137 62.104C382.873 63.512 381.025 64.216 378.593 64.216C377.073 64.216 375.737 63.928 374.585 63.352C373.433 62.776 372.537 61.976 371.896 60.952C371.273 59.928 370.961 58.768 370.961 57.472C370.961 56.192 371.265 55.048 371.873 54.04C372.497 53.016 373.353 52.216 374.441 51.64C375.529 51.064 376.753 50.776 378.113 50.776C379.409 50.776 380.585 51.048 381.641 51.592C382.697 52.12 383.529 52.896 384.137 53.92C384.761 54.928 385.073 56.128 385.073 57.52ZM378.137 54.016C377.433 54.016 376.841 54.216 376.361 54.616C375.897 55.016 375.601 55.56 375.473 56.248H380.801C380.673 55.56 380.369 55.016 379.889 54.616C379.425 54.216 378.841 54.016 378.137 54.016Z" fill="#4A4A4A"/>
<path d="M187.146 95.88C187.466 96.22 187.756 96.64 188.016 97.14H190.986V100.05H188.736V100.17C188.736 101.67 188.346 102.96 187.566 104.04C186.786 105.12 185.686 105.94 184.266 106.5L189.156 114H182.796L178.506 107.31H172.806V102.72H178.626C179.866 102.72 180.816 102.48 181.476 102C182.156 101.52 182.556 100.87 182.676 100.05H172.176V97.14H181.986C181.266 96.3 180.116 95.88 178.536 95.88H172.176V92.97H190.986V95.88H187.146ZM204.082 93V114H198.142V97.59H194.242V93H204.082ZM218.01 114.42C216.21 114.42 214.61 113.99 213.21 113.13C211.81 112.27 210.71 111.02 209.91 109.38C209.13 107.72 208.74 105.76 208.74 103.5C208.74 101.24 209.13 99.29 209.91 97.65C210.71 95.99 211.81 94.73 213.21 93.87C214.61 93.01 216.21 92.58 218.01 92.58C219.79 92.58 221.38 93.01 222.78 93.87C224.18 94.73 225.27 95.99 226.05 97.65C226.85 99.29 227.25 101.24 227.25 103.5C227.25 105.76 226.85 107.72 226.05 109.38C225.27 111.02 224.18 112.27 222.78 113.13C221.38 113.99 219.79 114.42 218.01 114.42ZM218.01 109.56C219.01 109.56 219.8 109.08 220.38 108.12C220.98 107.14 221.28 105.6 221.28 103.5C221.28 101.4 220.98 99.87 220.38 98.91C219.8 97.93 219.01 97.44 218.01 97.44C216.99 97.44 216.18 97.93 215.58 98.91C215 99.87 214.71 101.4 214.71 103.5C214.71 105.6 215 107.14 215.58 108.12C216.18 109.08 216.99 109.56 218.01 109.56ZM240.047 114.42C238.247 114.42 236.647 113.99 235.247 113.13C233.847 112.27 232.747 111.02 231.947 109.38C231.167 107.72 230.777 105.76 230.777 103.5C230.777 101.24 231.167 99.29 231.947 97.65C232.747 95.99 233.847 94.73 235.247 93.87C236.647 93.01 238.247 92.58 240.047 92.58C241.827 92.58 243.417 93.01 244.817 93.87C246.217 94.73 247.307 95.99 248.087 97.65C248.887 99.29 249.287 101.24 249.287 103.5C249.287 105.76 248.887 107.72 248.087 109.38C247.307 111.02 246.217 112.27 244.817 113.13C243.417 113.99 241.827 114.42 240.047 114.42ZM240.047 109.56C241.047 109.56 241.837 109.08 242.417 108.12C243.017 107.14 243.317 105.6 243.317 103.5C243.317 101.4 243.017 99.87 242.417 98.91C241.837 97.93 241.047 97.44 240.047 97.44C239.027 97.44 238.217 97.93 237.617 98.91C237.037 99.87 236.747 101.4 236.747 103.5C236.747 105.6 237.037 107.14 237.617 108.12C238.217 109.08 239.027 109.56 240.047 109.56Z" fill="#4E6DFF"/>
<g filter="url(#filter0_di_138_246)">
<rect x="136" y="526" width="148" height="52" rx="20" fill="url(#paint0_linear_138_246)"/>
<path d="M168.553 546.134V558H166.173V546.134H168.553ZM175.715 548.446C176.837 548.446 177.744 548.803 178.435 549.517C179.127 550.22 179.472 551.206 179.472 552.475V558H177.092V552.798C177.092 552.05 176.905 551.478 176.531 551.081C176.157 550.673 175.647 550.469 175.001 550.469C174.344 550.469 173.823 550.673 173.437 551.081C173.063 551.478 172.876 552.05 172.876 552.798V558H170.496V548.582H172.876V549.755C173.194 549.347 173.596 549.03 174.083 548.803C174.582 548.565 175.126 548.446 175.715 548.446ZM185.255 555.807L187.635 548.582H190.168L186.683 558H183.793L180.325 548.582H182.875L185.255 555.807ZM199.851 553.087C199.851 553.427 199.829 553.733 199.783 554.005H192.898C192.955 554.685 193.193 555.218 193.612 555.603C194.032 555.988 194.547 556.181 195.159 556.181C196.043 556.181 196.672 555.801 197.046 555.042H199.613C199.341 555.949 198.82 556.697 198.049 557.286C197.279 557.864 196.332 558.153 195.21 558.153C194.304 558.153 193.488 557.955 192.762 557.558C192.048 557.15 191.487 556.578 191.079 555.841C190.683 555.104 190.484 554.254 190.484 553.291C190.484 552.316 190.683 551.461 191.079 550.724C191.476 549.987 192.031 549.421 192.745 549.024C193.459 548.627 194.281 548.429 195.21 548.429C196.106 548.429 196.905 548.622 197.607 549.007C198.321 549.392 198.871 549.942 199.256 550.656C199.653 551.359 199.851 552.169 199.851 553.087ZM197.386 552.407C197.375 551.795 197.154 551.308 196.723 550.945C196.293 550.571 195.766 550.384 195.142 550.384C194.553 550.384 194.054 550.565 193.646 550.928C193.25 551.279 193.006 551.772 192.915 552.407H197.386ZM204.785 558.153C204.014 558.153 203.323 558.017 202.711 557.745C202.099 557.462 201.611 557.082 201.249 556.606C200.897 556.13 200.705 555.603 200.671 555.025H203.068C203.113 555.388 203.289 555.688 203.595 555.926C203.912 556.164 204.303 556.283 204.768 556.283C205.221 556.283 205.572 556.192 205.822 556.011C206.082 555.83 206.213 555.597 206.213 555.314C206.213 555.008 206.054 554.781 205.737 554.634C205.431 554.475 204.938 554.305 204.258 554.124C203.555 553.954 202.977 553.778 202.524 553.597C202.082 553.416 201.696 553.138 201.368 552.764C201.05 552.39 200.892 551.886 200.892 551.251C200.892 550.73 201.039 550.254 201.334 549.823C201.64 549.392 202.07 549.052 202.626 548.803C203.192 548.554 203.855 548.429 204.615 548.429C205.737 548.429 206.632 548.712 207.301 549.279C207.969 549.834 208.338 550.588 208.406 551.54H206.128C206.094 551.166 205.935 550.871 205.652 550.656C205.38 550.429 205.011 550.316 204.547 550.316C204.116 550.316 203.782 550.395 203.544 550.554C203.317 550.713 203.204 550.934 203.204 551.217C203.204 551.534 203.362 551.778 203.68 551.948C203.997 552.107 204.49 552.271 205.159 552.441C205.839 552.611 206.4 552.787 206.842 552.968C207.284 553.149 207.663 553.433 207.981 553.818C208.309 554.192 208.479 554.691 208.491 555.314C208.491 555.858 208.338 556.345 208.032 556.776C207.737 557.207 207.306 557.547 206.74 557.796C206.184 558.034 205.533 558.153 204.785 558.153ZM212.807 550.537V555.093C212.807 555.41 212.881 555.643 213.028 555.79C213.187 555.926 213.448 555.994 213.81 555.994H214.915V558H213.419C211.413 558 210.41 557.025 210.41 555.076V550.537H209.288V548.582H210.41V546.253H212.807V548.582H214.915V550.537H212.807ZM225.081 548.446C226.203 548.446 227.11 548.803 227.801 549.517C228.492 550.22 228.838 551.206 228.838 552.475V558H226.458V552.798C226.458 552.05 226.271 551.478 225.897 551.081C225.523 550.673 225.013 550.469 224.367 550.469C223.71 550.469 223.188 550.673 222.803 551.081C222.429 551.478 222.242 552.05 222.242 552.798V558H219.862V548.582H222.242V549.755C222.559 549.347 222.962 549.03 223.449 548.803C223.948 548.565 224.492 548.446 225.081 548.446ZM234.875 558.153C233.969 558.153 233.153 557.955 232.427 557.558C231.702 557.15 231.13 556.578 230.71 555.841C230.302 555.104 230.098 554.254 230.098 553.291C230.098 552.328 230.308 551.478 230.727 550.741C231.158 550.004 231.742 549.438 232.478 549.041C233.215 548.633 234.037 548.429 234.943 548.429C235.85 548.429 236.672 548.633 237.408 549.041C238.145 549.438 238.723 550.004 239.142 550.741C239.573 551.478 239.788 552.328 239.788 553.291C239.788 554.254 239.567 555.104 239.125 555.841C238.695 556.578 238.105 557.15 237.357 557.558C236.621 557.955 235.793 558.153 234.875 558.153ZM234.875 556.079C235.306 556.079 235.708 555.977 236.082 555.773C236.468 555.558 236.774 555.24 237 554.821C237.227 554.402 237.34 553.892 237.34 553.291C237.34 552.396 237.102 551.71 236.626 551.234C236.162 550.747 235.589 550.503 234.909 550.503C234.229 550.503 233.657 550.747 233.192 551.234C232.739 551.71 232.512 552.396 232.512 553.291C232.512 554.186 232.733 554.878 233.175 555.365C233.629 555.841 234.195 556.079 234.875 556.079ZM254.182 548.582L251.428 558H248.861L247.144 551.421L245.427 558H242.843L240.072 548.582H242.486L244.152 555.756L245.954 548.582H248.47L250.238 555.739L251.904 548.582H254.182Z" fill="black"/>
</g>
<path d="M47.1106 152.532L43.5286 162H42.3226L39.3346 154.242L36.3466 162H35.1406L31.5766 152.532H32.8006L35.7706 160.578L38.8126 152.532H39.9106L42.9346 160.578L45.9406 152.532H47.1106ZM52.6413 162.09C51.7293 162.09 50.9073 161.886 50.1753 161.478C49.4433 161.058 48.8673 160.482 48.4473 159.75C48.0273 159.018 47.8173 158.19 47.8173 157.266C47.8173 156.342 48.0273 155.514 48.4473 154.782C48.8673 154.05 49.4433 153.48 50.1753 153.072C50.9073 152.664 51.7293 152.46 52.6413 152.46C53.5533 152.46 54.3753 152.664 55.1073 153.072C55.8393 153.48 56.4093 154.05 56.8173 154.782C57.2373 155.514 57.4473 156.342 57.4473 157.266C57.4473 158.19 57.2373 159.018 56.8173 159.75C56.4093 160.482 55.8393 161.058 55.1073 161.478C54.3753 161.886 53.5533 162.09 52.6413 162.09ZM52.6413 160.956C53.3133 160.956 53.9133 160.806 54.4413 160.506C54.9813 160.194 55.4013 159.756 55.7013 159.192C56.0013 158.628 56.1513 157.986 56.1513 157.266C56.1513 156.546 56.0013 155.904 55.7013 155.34C55.4013 154.776 54.9813 154.344 54.4413 154.044C53.9133 153.732 53.3133 153.576 52.6413 153.576C51.9693 153.576 51.3633 153.732 50.8233 154.044C50.2953 154.344 49.8753 154.776 49.5633 155.34C49.2633 155.904 49.1133 156.546 49.1133 157.266C49.1133 157.986 49.2633 158.628 49.5633 159.192C49.8753 159.756 50.2953 160.194 50.8233 160.506C51.3633 160.806 51.9693 160.956 52.6413 160.956ZM68.5884 152.532V162H67.3644V160.272C67.0284 160.848 66.5664 161.298 65.9784 161.622C65.3904 161.934 64.7184 162.09 63.9624 162.09C62.7264 162.09 61.7484 161.748 61.0284 161.064C60.3204 160.368 59.9664 159.354 59.9664 158.022V152.532H61.2444V157.896C61.2444 158.892 61.4904 159.648 61.9824 160.164C62.4744 160.68 63.1764 160.938 64.0884 160.938C65.0844 160.938 65.8704 160.638 66.4464 160.038C67.0224 159.426 67.3104 158.58 67.3104 157.5V152.532H68.5884ZM72.1677 148.644H73.4457V162H72.1677V148.644ZM85.6417 148.644V162H84.4177V160.128C84.0337 160.764 83.5237 161.25 82.8877 161.586C82.2637 161.922 81.5557 162.09 80.7637 162.09C79.8757 162.09 79.0717 161.886 78.3517 161.478C77.6317 161.07 77.0677 160.5 76.6597 159.768C76.2517 159.036 76.0477 158.202 76.0477 157.266C76.0477 156.33 76.2517 155.496 76.6597 154.764C77.0677 154.032 77.6317 153.468 78.3517 153.072C79.0717 152.664 79.8757 152.46 80.7637 152.46C81.5317 152.46 82.2217 152.622 82.8337 152.946C83.4577 153.258 83.9677 153.72 84.3637 154.332V148.644H85.6417ZM80.8717 160.956C81.5317 160.956 82.1257 160.806 82.6537 160.506C83.1937 160.194 83.6137 159.756 83.9137 159.192C84.2257 158.628 84.3817 157.986 84.3817 157.266C84.3817 156.546 84.2257 155.904 83.9137 155.34C83.6137 154.776 83.1937 154.344 82.6537 154.044C82.1257 153.732 81.5317 153.576 80.8717 153.576C80.1997 153.576 79.5937 153.732 79.0537 154.044C78.5257 154.344 78.1057 154.776 77.7937 155.34C77.4937 155.904 77.3437 156.546 77.3437 157.266C77.3437 157.986 77.4937 158.628 77.7937 159.192C78.1057 159.756 78.5257 160.194 79.0537 160.506C79.5937 160.806 80.1997 160.956 80.8717 160.956ZM98.7359 152.46C99.9239 152.46 100.866 152.808 101.562 153.504C102.27 154.188 102.624 155.19 102.624 156.51V162H101.346V156.636C101.346 155.652 101.1 154.902 100.608 154.386C100.116 153.87 99.4139 153.612 98.5019 153.612C97.4819 153.612 96.6719 153.918 96.0719 154.53C95.4839 155.13 95.1899 155.964 95.1899 157.032V162H93.9119V148.644H95.1899V154.188C95.5379 153.636 96.0179 153.21 96.6299 152.91C97.2419 152.61 97.9439 152.46 98.7359 152.46ZM109.406 152.46C110.642 152.46 111.59 152.772 112.25 153.396C112.91 154.008 113.24 154.92 113.24 156.132V162H112.016V160.524C111.728 161.016 111.302 161.4 110.738 161.676C110.186 161.952 109.526 162.09 108.758 162.09C107.702 162.09 106.862 161.838 106.238 161.334C105.614 160.83 105.302 160.164 105.302 159.336C105.302 158.532 105.59 157.884 106.166 157.392C106.754 156.9 107.684 156.654 108.956 156.654H111.962V156.078C111.962 155.262 111.734 154.644 111.278 154.224C110.822 153.792 110.156 153.576 109.28 153.576C108.68 153.576 108.104 153.678 107.552 153.882C107 154.074 106.526 154.344 106.13 154.692L105.554 153.738C106.034 153.33 106.61 153.018 107.282 152.802C107.954 152.574 108.662 152.46 109.406 152.46ZM108.956 161.082C109.676 161.082 110.294 160.92 110.81 160.596C111.326 160.26 111.71 159.78 111.962 159.156V157.608H108.992C107.372 157.608 106.562 158.172 106.562 159.3C106.562 159.852 106.772 160.29 107.192 160.614C107.612 160.926 108.2 161.082 108.956 161.082ZM124.491 152.532L120.279 162H118.965L114.771 152.532H116.103L119.649 160.596L123.231 152.532H124.491ZM134.271 157.662H126.351C126.423 158.646 126.801 159.444 127.485 160.056C128.169 160.656 129.033 160.956 130.077 160.956C130.665 160.956 131.205 160.854 131.697 160.65C132.189 160.434 132.615 160.122 132.975 159.714L133.695 160.542C133.275 161.046 132.747 161.43 132.111 161.694C131.487 161.958 130.797 162.09 130.041 162.09C129.069 162.09 128.205 161.886 127.449 161.478C126.705 161.058 126.123 160.482 125.703 159.75C125.283 159.018 125.073 158.19 125.073 157.266C125.073 156.342 125.271 155.514 125.667 154.782C126.075 154.05 126.627 153.48 127.323 153.072C128.031 152.664 128.823 152.46 129.699 152.46C130.575 152.46 131.361 152.664 132.057 153.072C132.753 153.48 133.299 154.05 133.695 154.782C134.091 155.502 134.289 156.33 134.289 157.266L134.271 157.662ZM129.699 153.558C128.787 153.558 128.019 153.852 127.395 154.44C126.783 155.016 126.435 155.772 126.351 156.708H133.065C132.981 155.772 132.627 155.016 132.003 154.44C131.391 153.852 130.623 153.558 129.699 153.558ZM150.367 152.532V160.848C150.367 162.456 149.971 163.644 149.179 164.412C148.399 165.192 147.217 165.582 145.633 165.582C144.757 165.582 143.923 165.45 143.131 165.186C142.351 164.934 141.715 164.58 141.223 164.124L141.871 163.152C142.327 163.56 142.879 163.878 143.527 164.106C144.187 164.334 144.877 164.448 145.597 164.448C146.797 164.448 147.679 164.166 148.243 163.602C148.807 163.05 149.089 162.186 149.089 161.01V159.804C148.693 160.404 148.171 160.86 147.523 161.172C146.887 161.484 146.179 161.64 145.399 161.64C144.511 161.64 143.701 161.448 142.969 161.064C142.249 160.668 141.679 160.122 141.259 159.426C140.851 158.718 140.647 157.92 140.647 157.032C140.647 156.144 140.851 155.352 141.259 154.656C141.679 153.96 142.249 153.42 142.969 153.036C143.689 152.652 144.499 152.46 145.399 152.46C146.203 152.46 146.929 152.622 147.577 152.946C148.225 153.27 148.747 153.738 149.143 154.35V152.532H150.367ZM145.525 160.506C146.209 160.506 146.827 160.362 147.379 160.074C147.931 159.774 148.357 159.36 148.657 158.832C148.969 158.304 149.125 157.704 149.125 157.032C149.125 156.36 148.969 155.766 148.657 155.25C148.357 154.722 147.931 154.314 147.379 154.026C146.839 153.726 146.221 153.576 145.525 153.576C144.841 153.576 144.223 153.72 143.671 154.008C143.131 154.296 142.705 154.704 142.393 155.232C142.093 155.76 141.943 156.36 141.943 157.032C141.943 157.704 142.093 158.304 142.393 158.832C142.705 159.36 143.131 159.774 143.671 160.074C144.223 160.362 144.841 160.506 145.525 160.506ZM153.941 152.532H155.219V162H153.941V152.532ZM154.589 150.462C154.325 150.462 154.103 150.372 153.923 150.192C153.743 150.012 153.653 149.796 153.653 149.544C153.653 149.304 153.743 149.094 153.923 148.914C154.103 148.734 154.325 148.644 154.589 148.644C154.853 148.644 155.075 148.734 155.255 148.914C155.435 149.082 155.525 149.286 155.525 149.526C155.525 149.79 155.435 150.012 155.255 150.192C155.075 150.372 154.853 150.462 154.589 150.462ZM166.731 152.532L162.519 162H161.205L157.011 152.532H158.343L161.889 160.596L165.471 152.532H166.731ZM176.511 157.662H168.591C168.663 158.646 169.041 159.444 169.725 160.056C170.409 160.656 171.273 160.956 172.317 160.956C172.905 160.956 173.445 160.854 173.937 160.65C174.429 160.434 174.855 160.122 175.215 159.714L175.935 160.542C175.515 161.046 174.987 161.43 174.351 161.694C173.727 161.958 173.037 162.09 172.281 162.09C171.309 162.09 170.445 161.886 169.689 161.478C168.945 161.058 168.363 160.482 167.943 159.75C167.523 159.018 167.313 158.19 167.313 157.266C167.313 156.342 167.511 155.514 167.907 154.782C168.315 154.05 168.867 153.48 169.563 153.072C170.271 152.664 171.063 152.46 171.939 152.46C172.815 152.46 173.601 152.664 174.297 153.072C174.993 153.48 175.539 154.05 175.935 154.782C176.331 155.502 176.529 156.33 176.529 157.266L176.511 157.662ZM171.939 153.558C171.027 153.558 170.259 153.852 169.635 154.44C169.023 155.016 168.675 155.772 168.591 156.708H175.305C175.221 155.772 174.867 155.016 174.243 154.44C173.631 153.852 172.863 153.558 171.939 153.558ZM183.955 152.46C185.143 152.46 186.085 152.808 186.781 153.504C187.489 154.188 187.843 155.19 187.843 156.51V162H186.565V156.636C186.565 155.652 186.319 154.902 185.827 154.386C185.335 153.87 184.633 153.612 183.721 153.612C182.701 153.612 181.891 153.918 181.291 154.53C180.703 155.13 180.409 155.964 180.409 157.032V162H179.131V152.532H180.355V154.278C180.703 153.702 181.183 153.258 181.795 152.946C182.419 152.622 183.139 152.46 183.955 152.46ZM199.335 152.46C200.571 152.46 201.519 152.772 202.179 153.396C202.839 154.008 203.169 154.92 203.169 156.132V162H201.945V160.524C201.657 161.016 201.231 161.4 200.667 161.676C200.115 161.952 199.455 162.09 198.687 162.09C197.631 162.09 196.791 161.838 196.167 161.334C195.543 160.83 195.231 160.164 195.231 159.336C195.231 158.532 195.519 157.884 196.095 157.392C196.683 156.9 197.613 156.654 198.885 156.654H201.891V156.078C201.891 155.262 201.663 154.644 201.207 154.224C200.751 153.792 200.085 153.576 199.209 153.576C198.609 153.576 198.033 153.678 197.481 153.882C196.929 154.074 196.455 154.344 196.059 154.692L195.483 153.738C195.963 153.33 196.539 153.018 197.211 152.802C197.883 152.574 198.591 152.46 199.335 152.46ZM198.885 161.082C199.605 161.082 200.223 160.92 200.739 160.596C201.255 160.26 201.639 159.78 201.891 159.156V157.608H198.921C197.301 157.608 196.491 158.172 196.491 159.3C196.491 159.852 196.701 160.29 197.121 160.614C197.541 160.926 198.129 161.082 198.885 161.082ZM212.575 154.386C212.875 153.75 213.319 153.27 213.907 152.946C214.507 152.622 215.245 152.46 216.121 152.46V153.702L215.815 153.684C214.819 153.684 214.039 153.99 213.475 154.602C212.911 155.214 212.629 156.072 212.629 157.176V162H211.351V152.532H212.575V154.386ZM226.591 157.662H218.671C218.743 158.646 219.121 159.444 219.805 160.056C220.489 160.656 221.353 160.956 222.397 160.956C222.985 160.956 223.525 160.854 224.017 160.65C224.509 160.434 224.935 160.122 225.295 159.714L226.015 160.542C225.595 161.046 225.067 161.43 224.431 161.694C223.807 161.958 223.117 162.09 222.361 162.09C221.389 162.09 220.525 161.886 219.769 161.478C219.025 161.058 218.443 160.482 218.023 159.75C217.603 159.018 217.393 158.19 217.393 157.266C217.393 156.342 217.591 155.514 217.987 154.782C218.395 154.05 218.947 153.48 219.643 153.072C220.351 152.664 221.143 152.46 222.019 152.46C222.895 152.46 223.681 152.664 224.377 153.072C225.073 153.48 225.619 154.05 226.015 154.782C226.411 155.502 226.609 156.33 226.609 157.266L226.591 157.662ZM222.019 153.558C221.107 153.558 220.339 153.852 219.715 154.44C219.103 155.016 218.755 155.772 218.671 156.708H225.385C225.301 155.772 224.947 155.016 224.323 154.44C223.711 153.852 222.943 153.558 222.019 153.558ZM234.197 161.424C233.957 161.64 233.657 161.808 233.297 161.928C232.949 162.036 232.583 162.09 232.199 162.09C231.311 162.09 230.627 161.85 230.147 161.37C229.667 160.89 229.427 160.212 229.427 159.336V153.612H227.735V152.532H229.427V150.462H230.705V152.532H233.585V153.612H230.705V159.264C230.705 159.828 230.843 160.26 231.119 160.56C231.407 160.848 231.815 160.992 232.343 160.992C232.607 160.992 232.859 160.95 233.099 160.866C233.351 160.782 233.567 160.662 233.747 160.506L234.197 161.424ZM245.055 152.532V162H243.831V160.272C243.495 160.848 243.033 161.298 242.445 161.622C241.857 161.934 241.185 162.09 240.429 162.09C239.193 162.09 238.215 161.748 237.495 161.064C236.787 160.368 236.433 159.354 236.433 158.022V152.532H237.711V157.896C237.711 158.892 237.957 159.648 238.449 160.164C238.941 160.68 239.643 160.938 240.555 160.938C241.551 160.938 242.337 160.638 242.913 160.038C243.489 159.426 243.777 158.58 243.777 157.5V152.532H245.055ZM249.859 154.386C250.159 153.75 250.603 153.27 251.191 152.946C251.791 152.622 252.529 152.46 253.405 152.46V153.702L253.099 153.684C252.103 153.684 251.323 153.99 250.759 154.602C250.195 155.214 249.913 156.072 249.913 157.176V162H248.635V152.532H249.859V154.386ZM260.543 152.46C261.731 152.46 262.673 152.808 263.369 153.504C264.077 154.188 264.431 155.19 264.431 156.51V162H263.153V156.636C263.153 155.652 262.907 154.902 262.415 154.386C261.923 153.87 261.221 153.612 260.309 153.612C259.289 153.612 258.479 153.918 257.879 154.53C257.291 155.13 256.997 155.964 256.997 157.032V162H255.719V152.532H256.943V154.278C257.291 153.702 257.771 153.258 258.383 152.946C259.007 152.622 259.727 152.46 260.543 152.46ZM276.481 162.09C275.569 162.09 274.747 161.886 274.015 161.478C273.283 161.058 272.707 160.482 272.287 159.75C271.867 159.018 271.657 158.19 271.657 157.266C271.657 156.342 271.867 155.514 272.287 154.782C272.707 154.05 273.283 153.48 274.015 153.072C274.747 152.664 275.569 152.46 276.481 152.46C277.393 152.46 278.215 152.664 278.947 153.072C279.679 153.48 280.249 154.05 280.657 154.782C281.077 155.514 281.287 156.342 281.287 157.266C281.287 158.19 281.077 159.018 280.657 159.75C280.249 160.482 279.679 161.058 278.947 161.478C278.215 161.886 277.393 162.09 276.481 162.09ZM276.481 160.956C277.153 160.956 277.753 160.806 278.281 160.506C278.821 160.194 279.241 159.756 279.541 159.192C279.841 158.628 279.991 157.986 279.991 157.266C279.991 156.546 279.841 155.904 279.541 155.34C279.241 154.776 278.821 154.344 278.281 154.044C277.753 153.732 277.153 153.576 276.481 153.576C275.809 153.576 275.203 153.732 274.663 154.044C274.135 154.344 273.715 154.776 273.403 155.34C273.103 155.904 272.953 156.546 272.953 157.266C272.953 157.986 273.103 158.628 273.403 159.192C273.715 159.756 274.135 160.194 274.663 160.506C275.203 160.806 275.809 160.956 276.481 160.956ZM287.028 149.634C286.476 149.634 286.056 149.784 285.768 150.084C285.492 150.384 285.354 150.828 285.354 151.416V152.532H288.27V153.612H285.39V162H284.112V153.612H282.42V152.532H284.112V151.362C284.112 150.498 284.358 149.814 284.85 149.31C285.354 148.806 286.062 148.554 286.974 148.554C287.334 148.554 287.682 148.608 288.018 148.716C288.354 148.812 288.636 148.956 288.864 149.148L288.432 150.102C288.06 149.79 287.592 149.634 287.028 149.634ZM298.019 152.46C299.255 152.46 300.203 152.772 300.863 153.396C301.523 154.008 301.853 154.92 301.853 156.132V162H300.629V160.524C300.341 161.016 299.915 161.4 299.351 161.676C298.799 161.952 298.139 162.09 297.371 162.09C296.315 162.09 295.475 161.838 294.851 161.334C294.227 160.83 293.915 160.164 293.915 159.336C293.915 158.532 294.203 157.884 294.779 157.392C295.367 156.9 296.297 156.654 297.569 156.654H300.575V156.078C300.575 155.262 300.347 154.644 299.891 154.224C299.435 153.792 298.769 153.576 297.893 153.576C297.293 153.576 296.717 153.678 296.165 153.882C295.613 154.074 295.139 154.344 294.743 154.692L294.167 153.738C294.647 153.33 295.223 153.018 295.895 152.802C296.567 152.574 297.275 152.46 298.019 152.46ZM297.569 161.082C298.289 161.082 298.907 160.92 299.423 160.596C299.939 160.26 300.323 159.78 300.575 159.156V157.608H297.605C295.985 157.608 295.175 158.172 295.175 159.3C295.175 159.852 295.385 160.29 295.805 160.614C296.225 160.926 296.813 161.082 297.569 161.082ZM308.456 149.634C307.904 149.634 307.484 149.784 307.196 150.084C306.92 150.384 306.782 150.828 306.782 151.416V152.532H309.698V153.612H306.818V162H305.54V153.612H303.848V152.532H305.54V151.362C305.54 150.498 305.786 149.814 306.278 149.31C306.782 148.806 307.49 148.554 308.402 148.554C308.762 148.554 309.11 148.608 309.446 148.716C309.782 148.812 310.064 148.956 310.292 149.148L309.86 150.102C309.488 149.79 309.02 149.634 308.456 149.634ZM316.41 161.424C316.17 161.64 315.87 161.808 315.51 161.928C315.162 162.036 314.796 162.09 314.412 162.09C313.524 162.09 312.84 161.85 312.36 161.37C311.88 160.89 311.64 160.212 311.64 159.336V153.612H309.948V152.532H311.64V150.462H312.918V152.532H315.798V153.612H312.918V159.264C312.918 159.828 313.056 160.26 313.332 160.56C313.62 160.848 314.028 160.992 314.556 160.992C314.82 160.992 315.072 160.95 315.312 160.866C315.564 160.782 315.78 160.662 315.96 160.506L316.41 161.424ZM326.646 157.662H318.726C318.798 158.646 319.176 159.444 319.86 160.056C320.544 160.656 321.408 160.956 322.452 160.956C323.04 160.956 323.58 160.854 324.072 160.65C324.564 160.434 324.99 160.122 325.35 159.714L326.07 160.542C325.65 161.046 325.122 161.43 324.486 161.694C323.862 161.958 323.172 162.09 322.416 162.09C321.444 162.09 320.58 161.886 319.824 161.478C319.08 161.058 318.498 160.482 318.078 159.75C317.658 159.018 317.448 158.19 317.448 157.266C317.448 156.342 317.646 155.514 318.042 154.782C318.45 154.05 319.002 153.48 319.698 153.072C320.406 152.664 321.198 152.46 322.074 152.46C322.95 152.46 323.736 152.664 324.432 153.072C325.128 153.48 325.674 154.05 326.07 154.782C326.466 155.502 326.664 156.33 326.664 157.266L326.646 157.662ZM322.074 153.558C321.162 153.558 320.394 153.852 319.77 154.44C319.158 155.016 318.81 155.772 318.726 156.708H325.44C325.356 155.772 325.002 155.016 324.378 154.44C323.766 153.852 322.998 153.558 322.074 153.558ZM330.489 154.386C330.789 153.75 331.233 153.27 331.821 152.946C332.421 152.622 333.159 152.46 334.035 152.46V153.702L333.729 153.684C332.733 153.684 331.953 153.99 331.389 154.602C330.825 155.214 330.543 156.072 330.543 157.176V162H329.265V152.532H330.489V154.386ZM343.847 149.4V162H342.551V150.552H339.581V149.4H343.847ZM360.372 152.532L355.638 163.134C355.254 164.022 354.81 164.652 354.306 165.024C353.802 165.396 353.196 165.582 352.488 165.582C352.032 165.582 351.606 165.51 351.21 165.366C350.814 165.222 350.472 165.006 350.184 164.718L350.778 163.764C351.258 164.244 351.834 164.484 352.506 164.484C352.938 164.484 353.304 164.364 353.604 164.124C353.916 163.884 354.204 163.476 354.468 162.9L354.882 161.982L350.652 152.532H351.984L355.548 160.578L359.112 152.532H360.372ZM370.152 157.662H362.232C362.304 158.646 362.682 159.444 363.366 160.056C364.05 160.656 364.914 160.956 365.958 160.956C366.546 160.956 367.086 160.854 367.578 160.65C368.07 160.434 368.496 160.122 368.856 159.714L369.576 160.542C369.156 161.046 368.628 161.43 367.992 161.694C367.368 161.958 366.678 162.09 365.922 162.09C364.95 162.09 364.086 161.886 363.33 161.478C362.586 161.058 362.004 160.482 361.584 159.75C361.164 159.018 360.954 158.19 360.954 157.266C360.954 156.342 361.152 155.514 361.548 154.782C361.956 154.05 362.508 153.48 363.204 153.072C363.912 152.664 364.704 152.46 365.58 152.46C366.456 152.46 367.242 152.664 367.938 153.072C368.634 153.48 369.18 154.05 369.576 154.782C369.972 155.502 370.17 156.33 370.17 157.266L370.152 157.662ZM365.58 153.558C364.668 153.558 363.9 153.852 363.276 154.44C362.664 155.016 362.316 155.772 362.232 156.708H368.946C368.862 155.772 368.508 155.016 367.884 154.44C367.272 153.852 366.504 153.558 365.58 153.558ZM375.82 152.46C377.056 152.46 378.004 152.772 378.664 153.396C379.324 154.008 379.654 154.92 379.654 156.132V162H378.43V160.524C378.142 161.016 377.716 161.4 377.152 161.676C376.6 161.952 375.94 162.09 375.172 162.09C374.116 162.09 373.276 161.838 372.652 161.334C372.028 160.83 371.716 160.164 371.716 159.336C371.716 158.532 372.004 157.884 372.58 157.392C373.168 156.9 374.098 156.654 375.37 156.654H378.376V156.078C378.376 155.262 378.148 154.644 377.692 154.224C377.236 153.792 376.57 153.576 375.694 153.576C375.094 153.576 374.518 153.678 373.966 153.882C373.414 154.074 372.94 154.344 372.544 154.692L371.968 153.738C372.448 153.33 373.024 153.018 373.696 152.802C374.368 152.574 375.076 152.46 375.82 152.46ZM375.37 161.082C376.09 161.082 376.708 160.92 377.224 160.596C377.74 160.26 378.124 159.78 378.376 159.156V157.608H375.406C373.786 157.608 372.976 158.172 372.976 159.3C372.976 159.852 373.186 160.29 373.606 160.614C374.026 160.926 374.614 161.082 375.37 161.082ZM384.349 154.386C384.649 153.75 385.093 153.27 385.681 152.946C386.281 152.622 387.019 152.46 387.895 152.46V153.702L387.589 153.684C386.593 153.684 385.813 153.99 385.249 154.602C384.685 155.214 384.403 156.072 384.403 157.176V162H383.125V152.532H384.349V154.386Z" fill="black"/>
<line x1="171.5" y1="122.5" x2="248.5" y2="122.5" stroke="#4E6DFF" stroke-width="3" stroke-linecap="round"/>
<rect x="30" y="214" width="28" height="359.219" rx="14" transform="rotate(-90 30 214)" fill="#F3F3F3"/>
<path d="M43.7808 213C36.6011 213 30.7808 207.18 30.7808 200C30.7808 192.82 36.6011 187 43.7808 187L52.6462 187L52.6462 213L43.7808 213Z" fill="#4E6DFF"/>
<path d="M35.964 225.974C36.3187 226.03 36.6407 226.175 36.93 226.408C37.2287 226.641 37.462 226.931 37.63 227.276C37.8073 227.621 37.896 227.99 37.896 228.382C37.896 228.877 37.77 229.325 37.518 229.726C37.266 230.118 36.8973 230.431 36.412 230.664C35.936 230.888 35.3713 231 34.718 231H31.078L31.078 221.242H34.578C35.2407 221.242 35.8053 221.354 36.272 221.578C36.7387 221.793 37.0887 222.087 37.322 222.46C37.5553 222.833 37.672 223.253 37.672 223.72C37.672 224.299 37.5133 224.779 37.196 225.162C36.888 225.535 36.4773 225.806 35.964 225.974ZM32.352 225.456H34.494C35.0913 225.456 35.5533 225.316 35.88 225.036C36.2067 224.756 36.37 224.369 36.37 223.874C36.37 223.379 36.2067 222.992 35.88 222.712C35.5533 222.432 35.082 222.292 34.466 222.292H32.352V225.456ZM34.606 229.95C35.2407 229.95 35.7353 229.801 36.09 229.502C36.4447 229.203 36.622 228.788 36.622 228.256C36.622 227.715 36.4353 227.29 36.062 226.982C35.6887 226.665 35.1893 226.506 34.564 226.506H32.352V229.95H34.606ZM40.6879 227.136C40.6879 226.352 40.8466 225.666 41.1639 225.078C41.4813 224.481 41.9153 224.019 42.4659 223.692C43.0259 223.365 43.6466 223.202 44.3279 223.202C44.9999 223.202 45.5833 223.347 46.0779 223.636C46.5726 223.925 46.9413 224.289 47.1839 224.728V223.328H48.4719V231H47.1839V229.572C46.9319 230.02 46.5539 230.393 46.0499 230.692C45.5553 230.981 44.9766 231.126 44.3139 231.126C43.6326 231.126 43.0166 230.958 42.4659 230.622C41.9153 230.286 41.4813 229.815 41.1639 229.208C40.8466 228.601 40.6879 227.911 40.6879 227.136ZM47.1839 227.15C47.1839 226.571 47.0673 226.067 46.8339 225.638C46.6006 225.209 46.2833 224.882 45.8819 224.658C45.4899 224.425 45.0559 224.308 44.5799 224.308C44.1039 224.308 43.6699 224.42 43.2779 224.644C42.8859 224.868 42.5733 225.195 42.3399 225.624C42.1066 226.053 41.9899 226.557 41.9899 227.136C41.9899 227.724 42.1066 228.237 42.3399 228.676C42.5733 229.105 42.8859 229.437 43.2779 229.67C43.6699 229.894 44.1039 230.006 44.5799 230.006C45.0559 230.006 45.4899 229.894 45.8819 229.67C46.2833 229.437 46.6006 229.105 46.8339 228.676C47.0673 228.237 47.1839 227.729 47.1839 227.15ZM55.8629 223.188C56.7962 223.188 57.5522 223.473 58.1309 224.042C58.7095 224.602 58.9989 225.414 58.9989 226.478V231H57.7389V226.66C57.7389 225.895 57.5475 225.311 57.1649 224.91C56.7822 224.499 56.2595 224.294 55.5969 224.294C54.9249 224.294 54.3882 224.504 53.9869 224.924C53.5949 225.344 53.3989 225.955 53.3989 226.758V231H52.1249V223.328H53.3989V224.42C53.6509 224.028 53.9915 223.725 54.4209 223.51C54.8595 223.295 55.3402 223.188 55.8629 223.188ZM66.864 231L63.854 227.612V231H62.58V220.64H63.854V226.73L66.808 223.328H68.586L64.974 227.15L68.6 231H66.864ZM82.2855 228.83H78.0295L77.2455 231H75.9015L79.4295 221.298H80.8995L84.4135 231H83.0695L82.2855 228.83ZM81.9215 227.794L80.1575 222.866L78.3935 227.794H81.9215ZM86.975 227.15C86.975 226.357 87.1337 225.666 87.451 225.078C87.7684 224.481 88.207 224.019 88.767 223.692C89.3364 223.365 89.985 223.202 90.713 223.202C91.6557 223.202 92.4304 223.431 93.037 223.888C93.653 224.345 94.059 224.98 94.255 225.792H92.883C92.7524 225.325 92.4957 224.957 92.113 224.686C91.7397 224.415 91.273 224.28 90.713 224.28C89.985 224.28 89.397 224.532 88.949 225.036C88.501 225.531 88.277 226.235 88.277 227.15C88.277 228.074 88.501 228.788 88.949 229.292C89.397 229.796 89.985 230.048 90.713 230.048C91.273 230.048 91.7397 229.917 92.113 229.656C92.4864 229.395 92.743 229.021 92.883 228.536H94.255C94.0497 229.32 93.639 229.95 93.023 230.426C92.407 230.893 91.637 231.126 90.713 231.126C89.985 231.126 89.3364 230.963 88.767 230.636C88.207 230.309 87.7684 229.847 87.451 229.25C87.1337 228.653 86.975 227.953 86.975 227.15ZM96.979 227.15C96.979 226.357 97.1376 225.666 97.455 225.078C97.7723 224.481 98.211 224.019 98.771 223.692C99.3403 223.365 99.989 223.202 100.717 223.202C101.66 223.202 102.434 223.431 103.041 223.888C103.657 224.345 104.063 224.98 104.259 225.792H102.887C102.756 225.325 102.5 224.957 102.117 224.686C101.744 224.415 101.277 224.28 100.717 224.28C99.989 224.28 99.401 224.532 98.953 225.036C98.505 225.531 98.281 226.235 98.281 227.15C98.281 228.074 98.505 228.788 98.953 229.292C99.401 229.796 99.989 230.048 100.717 230.048C101.277 230.048 101.744 229.917 102.117 229.656C102.49 229.395 102.747 229.021 102.887 228.536H104.259C104.054 229.32 103.643 229.95 103.027 230.426C102.411 230.893 101.641 231.126 100.717 231.126C99.989 231.126 99.3403 230.963 98.771 230.636C98.211 230.309 97.7723 229.847 97.455 229.25C97.1376 228.653 96.979 227.953 96.979 227.15ZM110.805 231.126C110.086 231.126 109.433 230.963 108.845 230.636C108.266 230.309 107.809 229.847 107.473 229.25C107.146 228.643 106.983 227.943 106.983 227.15C106.983 226.366 107.151 225.675 107.487 225.078C107.832 224.471 108.299 224.009 108.887 223.692C109.475 223.365 110.133 223.202 110.861 223.202C111.589 223.202 112.247 223.365 112.835 223.692C113.423 224.009 113.885 224.467 114.221 225.064C114.566 225.661 114.739 226.357 114.739 227.15C114.739 227.943 114.562 228.643 114.207 229.25C113.862 229.847 113.39 230.309 112.793 230.636C112.196 230.963 111.533 231.126 110.805 231.126ZM110.805 230.006C111.262 230.006 111.692 229.899 112.093 229.684C112.494 229.469 112.816 229.147 113.059 228.718C113.311 228.289 113.437 227.766 113.437 227.15C113.437 226.534 113.316 226.011 113.073 225.582C112.83 225.153 112.513 224.835 112.121 224.63C111.729 224.415 111.304 224.308 110.847 224.308C110.38 224.308 109.951 224.415 109.559 224.63C109.176 224.835 108.868 225.153 108.635 225.582C108.402 226.011 108.285 226.534 108.285 227.15C108.285 227.775 108.397 228.303 108.621 228.732C108.854 229.161 109.162 229.483 109.545 229.698C109.928 229.903 110.348 230.006 110.805 230.006ZM124.718 223.328V231H123.444V229.866C123.201 230.258 122.861 230.566 122.422 230.79C121.993 231.005 121.517 231.112 120.994 231.112C120.397 231.112 119.86 230.991 119.384 230.748C118.908 230.496 118.53 230.123 118.25 229.628C117.979 229.133 117.844 228.531 117.844 227.822V223.328H119.104V227.654C119.104 228.41 119.295 228.993 119.678 229.404C120.061 229.805 120.583 230.006 121.246 230.006C121.927 230.006 122.464 229.796 122.856 229.376C123.248 228.956 123.444 228.345 123.444 227.542V223.328H124.718ZM132.107 223.188C133.04 223.188 133.796 223.473 134.375 224.042C134.954 224.602 135.243 225.414 135.243 226.478V231H133.983V226.66C133.983 225.895 133.792 225.311 133.409 224.91C133.026 224.499 132.504 224.294 131.841 224.294C131.169 224.294 130.632 224.504 130.231 224.924C129.839 225.344 129.643 225.955 129.643 226.758V231H128.369V223.328H129.643V224.42C129.895 224.028 130.236 223.725 130.665 223.51C131.104 223.295 131.584 223.188 132.107 223.188ZM140.378 224.378V228.9C140.378 229.273 140.457 229.539 140.616 229.698C140.775 229.847 141.05 229.922 141.442 229.922H142.38V231H141.232C140.523 231 139.991 230.837 139.636 230.51C139.281 230.183 139.104 229.647 139.104 228.9V224.378H138.11V223.328H139.104V221.396H140.378V223.328H142.38V224.378H140.378Z" fill="black"/>
<path d="M325.135 223.44V223.678H326.941V224.602H325.065C324.981 225.246 324.795 225.75 324.505 226.114C324.225 226.478 323.815 226.739 323.273 226.898C322.741 227.057 322.032 227.136 321.145 227.136V228.242C321.145 229.502 321.696 230.132 322.797 230.132C323.88 230.132 324.421 229.525 324.421 228.312H325.597C325.588 229.245 325.341 229.95 324.855 230.426C324.37 230.902 323.679 231.14 322.783 231.14C321.859 231.14 321.155 230.883 320.669 230.37C320.193 229.857 319.955 229.138 319.955 228.214V226.24C321.019 226.24 321.803 226.207 322.307 226.142C322.821 226.067 323.194 225.918 323.427 225.694C323.661 225.461 323.81 225.097 323.875 224.602H319.325V223.678H323.931V223.426V222.166H319.325V221.228H326.941V222.166H325.135V223.44ZM334.762 222.04V220.878H337.394V231H336.106V222.04H334.762ZM342.609 229.236L341.041 233.002H340.187L341.209 229.236H342.609ZM345.022 222.04V220.878H347.654V231H346.366V222.04H345.022ZM351.343 225.834C351.343 224.229 351.604 222.978 352.127 222.082C352.649 221.177 353.564 220.724 354.871 220.724C356.168 220.724 357.078 221.177 357.601 222.082C358.123 222.978 358.385 224.229 358.385 225.834C358.385 227.467 358.123 228.737 357.601 229.642C357.078 230.547 356.168 231 354.871 231C353.564 231 352.649 230.547 352.127 229.642C351.604 228.737 351.343 227.467 351.343 225.834ZM357.125 225.834C357.125 225.022 357.069 224.336 356.957 223.776C356.854 223.207 356.635 222.749 356.299 222.404C355.972 222.059 355.496 221.886 354.871 221.886C354.236 221.886 353.751 222.059 353.415 222.404C353.088 222.749 352.869 223.207 352.757 223.776C352.654 224.336 352.603 225.022 352.603 225.834C352.603 226.674 352.654 227.379 352.757 227.948C352.869 228.517 353.088 228.975 353.415 229.32C353.751 229.665 354.236 229.838 354.871 229.838C355.496 229.838 355.972 229.665 356.299 229.32C356.635 228.975 356.854 228.517 356.957 227.948C357.069 227.379 357.125 226.674 357.125 225.834ZM363.16 229.236L361.592 233.002H360.738L361.76 229.236H363.16ZM367.757 225.736C367.234 225.531 366.833 225.232 366.553 224.84C366.273 224.448 366.133 223.972 366.133 223.412C366.133 222.908 366.259 222.455 366.511 222.054C366.763 221.643 367.136 221.321 367.631 221.088C368.135 220.845 368.742 220.724 369.451 220.724C370.16 220.724 370.762 220.845 371.257 221.088C371.761 221.321 372.139 221.643 372.391 222.054C372.652 222.455 372.783 222.908 372.783 223.412C372.783 223.953 372.638 224.429 372.349 224.84C372.06 225.241 371.663 225.54 371.159 225.736C371.738 225.913 372.195 226.226 372.531 226.674C372.876 227.113 373.049 227.645 373.049 228.27C373.049 228.877 372.9 229.409 372.601 229.866C372.302 230.314 371.878 230.664 371.327 230.916C370.786 231.159 370.16 231.28 369.451 231.28C368.742 231.28 368.116 231.159 367.575 230.916C367.043 230.664 366.628 230.314 366.329 229.866C366.03 229.409 365.881 228.877 365.881 228.27C365.881 227.645 366.049 227.108 366.385 226.66C366.721 226.212 367.178 225.904 367.757 225.736ZM371.551 223.566C371.551 222.997 371.364 222.558 370.991 222.25C370.618 221.942 370.104 221.788 369.451 221.788C368.807 221.788 368.298 221.942 367.925 222.25C367.552 222.558 367.365 223.001 367.365 223.58C367.365 224.103 367.556 224.523 367.939 224.84C368.331 225.157 368.835 225.316 369.451 225.316C370.076 225.316 370.58 225.157 370.963 224.84C371.355 224.513 371.551 224.089 371.551 223.566ZM369.451 226.296C368.76 226.296 368.196 226.459 367.757 226.786C367.318 227.103 367.099 227.584 367.099 228.228C367.099 228.825 367.309 229.306 367.729 229.67C368.158 230.034 368.732 230.216 369.451 230.216C370.17 230.216 370.739 230.034 371.159 229.67C371.579 229.306 371.789 228.825 371.789 228.228C371.789 227.603 371.574 227.127 371.145 226.8C370.716 226.464 370.151 226.296 369.451 226.296ZM382.471 221.872L378.579 231H377.291L381.239 221.998H375.835V220.906H382.471V221.872ZM385.048 222.04V220.878H387.68V231H386.392V222.04H385.048Z" fill="#4A4A4A"/>
<rect x="30" y="304" width="28" height="359.999" rx="14" transform="rotate(-90 30 304)" fill="#F3F3F3"/>
<path d="M43.7825 303C36.6028 303 30.7825 297.18 30.7825 290C30.7825 282.82 36.6028 277 43.7825 277L61.3042 277L61.3042 303L43.7825 303Z" fill="#4E6DFF"/>
<path d="M36.594 311.242V312.278H32.352V315.568H35.796V316.604H32.352V321H31.078L31.078 311.242H36.594ZM40.2907 312.082C40.048 312.082 39.8427 311.998 39.6747 311.83C39.5067 311.662 39.4227 311.457 39.4227 311.214C39.4227 310.971 39.5067 310.766 39.6747 310.598C39.8427 310.43 40.048 310.346 40.2907 310.346C40.524 310.346 40.72 310.43 40.8787 310.598C41.0467 310.766 41.1307 310.971 41.1307 311.214C41.1307 311.457 41.0467 311.662 40.8787 311.83C40.72 311.998 40.524 312.082 40.2907 312.082ZM40.9067 313.328V321H39.6327V313.328H40.9067ZM48.582 321L46.762 318.144L45.012 321H43.682L46.16 317.192L43.682 313.328H45.124L46.944 316.17L48.68 313.328H50.01L47.546 317.122L50.024 321H48.582ZM59.7772 316.87C59.7772 317.113 59.7632 317.369 59.7352 317.64H53.6032C53.6499 318.396 53.9066 318.989 54.3732 319.418C54.8492 319.838 55.4232 320.048 56.0952 320.048C56.6459 320.048 57.1032 319.922 57.4672 319.67C57.8406 319.409 58.1019 319.063 58.2512 318.634H59.6232C59.4179 319.371 59.0072 319.973 58.3912 320.44C57.7752 320.897 57.0099 321.126 56.0952 321.126C55.3672 321.126 54.7139 320.963 54.1352 320.636C53.5659 320.309 53.1179 319.847 52.7912 319.25C52.4646 318.643 52.3012 317.943 52.3012 317.15C52.3012 316.357 52.4599 315.661 52.7772 315.064C53.0946 314.467 53.5379 314.009 54.1072 313.692C54.6859 313.365 55.3486 313.202 56.0952 313.202C56.8232 313.202 57.4672 313.361 58.0272 313.678C58.5872 313.995 59.0166 314.434 59.3152 314.994C59.6232 315.545 59.7772 316.17 59.7772 316.87ZM58.4612 316.604C58.4612 316.119 58.3539 315.703 58.1392 315.358C57.9246 315.003 57.6306 314.737 57.2572 314.56C56.8932 314.373 56.4872 314.28 56.0392 314.28C55.3952 314.28 54.8446 314.485 54.3872 314.896C53.9392 315.307 53.6826 315.876 53.6172 316.604H58.4612ZM62.4829 317.136C62.4829 316.352 62.6415 315.666 62.9589 315.078C63.2762 314.481 63.7102 314.019 64.2609 313.692C64.8209 313.365 65.4462 313.202 66.1369 313.202C66.7342 313.202 67.2895 313.342 67.8029 313.622C68.3162 313.893 68.7082 314.252 68.9789 314.7V310.64H70.2669V321H68.9789V319.558C68.7269 320.015 68.3535 320.393 67.8589 320.692C67.3642 320.981 66.7855 321.126 66.1229 321.126C65.4415 321.126 64.8209 320.958 64.2609 320.622C63.7102 320.286 63.2762 319.815 62.9589 319.208C62.6415 318.601 62.4829 317.911 62.4829 317.136ZM68.9789 317.15C68.9789 316.571 68.8622 316.067 68.6289 315.638C68.3955 315.209 68.0782 314.882 67.6769 314.658C67.2849 314.425 66.8509 314.308 66.3749 314.308C65.8989 314.308 65.4649 314.42 65.0729 314.644C64.6809 314.868 64.3682 315.195 64.1349 315.624C63.9015 316.053 63.7849 316.557 63.7849 317.136C63.7849 317.724 63.9015 318.237 64.1349 318.676C64.3682 319.105 64.6809 319.437 65.0729 319.67C65.4649 319.894 65.8989 320.006 66.3749 320.006C66.8509 320.006 67.2849 319.894 67.6769 319.67C68.0782 319.437 68.3955 319.105 68.6289 318.676C68.8622 318.237 68.9789 317.729 68.9789 317.15ZM82.1902 311.242C83.2542 311.242 84.1736 311.443 84.9482 311.844C85.7322 312.236 86.3296 312.801 86.7402 313.538C87.1602 314.275 87.3702 315.143 87.3702 316.142C87.3702 317.141 87.1602 318.009 86.7402 318.746C86.3296 319.474 85.7322 320.034 84.9482 320.426C84.1736 320.809 83.2542 321 82.1902 321H79.1522V311.242H82.1902ZM82.1902 319.95C83.4502 319.95 84.4116 319.619 85.0742 318.956C85.7369 318.284 86.0682 317.346 86.0682 316.142C86.0682 314.929 85.7322 313.981 85.0602 313.3C84.3976 312.619 83.4409 312.278 82.1902 312.278H80.4262V319.95H82.1902ZM97.5507 316.87C97.5507 317.113 97.5367 317.369 97.5087 317.64H91.3767C91.4233 318.396 91.68 318.989 92.1467 319.418C92.6227 319.838 93.1967 320.048 93.8687 320.048C94.4193 320.048 94.8767 319.922 95.2407 319.67C95.614 319.409 95.8753 319.063 96.0247 318.634H97.3967C97.1913 319.371 96.7807 319.973 96.1647 320.44C95.5487 320.897 94.7833 321.126 93.8687 321.126C93.1407 321.126 92.4873 320.963 91.9087 320.636C91.3393 320.309 90.8913 319.847 90.5647 319.25C90.238 318.643 90.0747 317.943 90.0747 317.15C90.0747 316.357 90.2333 315.661 90.5507 315.064C90.868 314.467 91.3113 314.009 91.8807 313.692C92.4593 313.365 93.122 313.202 93.8687 313.202C94.5967 313.202 95.2407 313.361 95.8007 313.678C96.3607 313.995 96.79 314.434 97.0887 314.994C97.3967 315.545 97.5507 316.17 97.5507 316.87ZM96.2347 316.604C96.2347 316.119 96.1273 315.703 95.9127 315.358C95.698 315.003 95.404 314.737 95.0307 314.56C94.6667 314.373 94.2607 314.28 93.8127 314.28C93.1687 314.28 92.618 314.485 92.1607 314.896C91.7127 315.307 91.456 315.876 91.3907 316.604H96.2347ZM102.006 314.742C102.258 314.303 102.632 313.939 103.126 313.65C103.63 313.351 104.214 313.202 104.876 313.202C105.558 313.202 106.174 313.365 106.724 313.692C107.284 314.019 107.723 314.481 108.04 315.078C108.358 315.666 108.516 316.352 108.516 317.136C108.516 317.911 108.358 318.601 108.04 319.208C107.723 319.815 107.284 320.286 106.724 320.622C106.174 320.958 105.558 321.126 104.876 321.126C104.223 321.126 103.644 320.981 103.14 320.692C102.646 320.393 102.268 320.025 102.006 319.586V324.64H100.732V313.328H102.006V314.742ZM107.214 317.136C107.214 316.557 107.098 316.053 106.864 315.624C106.631 315.195 106.314 314.868 105.912 314.644C105.52 314.42 105.086 314.308 104.61 314.308C104.144 314.308 103.71 314.425 103.308 314.658C102.916 314.882 102.599 315.213 102.356 315.652C102.123 316.081 102.006 316.581 102.006 317.15C102.006 317.729 102.123 318.237 102.356 318.676C102.599 319.105 102.916 319.437 103.308 319.67C103.71 319.894 104.144 320.006 104.61 320.006C105.086 320.006 105.52 319.894 105.912 319.67C106.314 319.437 106.631 319.105 106.864 318.676C107.098 318.237 107.214 317.724 107.214 317.136ZM115.039 321.126C114.321 321.126 113.667 320.963 113.079 320.636C112.501 320.309 112.043 319.847 111.707 319.25C111.381 318.643 111.217 317.943 111.217 317.15C111.217 316.366 111.385 315.675 111.721 315.078C112.067 314.471 112.533 314.009 113.121 313.692C113.709 313.365 114.367 313.202 115.095 313.202C115.823 313.202 116.481 313.365 117.069 313.692C117.657 314.009 118.119 314.467 118.455 315.064C118.801 315.661 118.973 316.357 118.973 317.15C118.973 317.943 118.796 318.643 118.441 319.25C118.096 319.847 117.625 320.309 117.027 320.636C116.43 320.963 115.767 321.126 115.039 321.126ZM115.039 320.006C115.497 320.006 115.926 319.899 116.327 319.684C116.729 319.469 117.051 319.147 117.293 318.718C117.545 318.289 117.671 317.766 117.671 317.15C117.671 316.534 117.55 316.011 117.307 315.582C117.065 315.153 116.747 314.835 116.355 314.63C115.963 314.415 115.539 314.308 115.081 314.308C114.615 314.308 114.185 314.415 113.793 314.63C113.411 314.835 113.103 315.153 112.869 315.582C112.636 316.011 112.519 316.534 112.519 317.15C112.519 317.775 112.631 318.303 112.855 318.732C113.089 319.161 113.397 319.483 113.779 319.698C114.162 319.903 114.582 320.006 115.039 320.006ZM124.864 321.126C124.276 321.126 123.749 321.028 123.282 320.832C122.816 320.627 122.447 320.347 122.176 319.992C121.906 319.628 121.756 319.213 121.728 318.746H123.044C123.082 319.129 123.259 319.441 123.576 319.684C123.903 319.927 124.328 320.048 124.85 320.048C125.336 320.048 125.718 319.941 125.998 319.726C126.278 319.511 126.418 319.241 126.418 318.914C126.418 318.578 126.269 318.331 125.97 318.172C125.672 318.004 125.21 317.841 124.584 317.682C124.015 317.533 123.548 317.383 123.184 317.234C122.83 317.075 122.522 316.847 122.26 316.548C122.008 316.24 121.882 315.839 121.882 315.344C121.882 314.952 121.999 314.593 122.232 314.266C122.466 313.939 122.797 313.683 123.226 313.496C123.656 313.3 124.146 313.202 124.696 313.202C125.546 313.202 126.232 313.417 126.754 313.846C127.277 314.275 127.557 314.863 127.594 315.61H126.32C126.292 315.209 126.129 314.887 125.83 314.644C125.541 314.401 125.149 314.28 124.654 314.28C124.197 314.28 123.833 314.378 123.562 314.574C123.292 314.77 123.156 315.027 123.156 315.344C123.156 315.596 123.236 315.806 123.394 315.974C123.562 316.133 123.768 316.263 124.01 316.366C124.262 316.459 124.608 316.567 125.046 316.688C125.597 316.837 126.045 316.987 126.39 317.136C126.736 317.276 127.03 317.491 127.272 317.78C127.524 318.069 127.655 318.447 127.664 318.914C127.664 319.334 127.548 319.712 127.314 320.048C127.081 320.384 126.75 320.65 126.32 320.846C125.9 321.033 125.415 321.126 124.864 321.126ZM131.621 312.082C131.378 312.082 131.173 311.998 131.005 311.83C130.837 311.662 130.753 311.457 130.753 311.214C130.753 310.971 130.837 310.766 131.005 310.598C131.173 310.43 131.378 310.346 131.621 310.346C131.854 310.346 132.05 310.43 132.209 310.598C132.377 310.766 132.461 310.971 132.461 311.214C132.461 311.457 132.377 311.662 132.209 311.83C132.05 311.998 131.854 312.082 131.621 312.082ZM132.237 313.328V321H130.963V313.328H132.237ZM137.462 314.378V318.9C137.462 319.273 137.541 319.539 137.7 319.698C137.859 319.847 138.134 319.922 138.526 319.922H139.464V321H138.316C137.607 321 137.075 320.837 136.72 320.51C136.365 320.183 136.188 319.647 136.188 318.9V314.378H135.194V313.328H136.188V311.396H137.462V313.328H139.464V314.378H137.462Z" fill="black"/>
<path d="M322.499 313.44V313.678H324.305V314.602H322.429C322.345 315.246 322.158 315.75 321.869 316.114C321.589 316.478 321.178 316.739 320.637 316.898C320.105 317.057 319.395 317.136 318.509 317.136V318.242C318.509 319.502 319.059 320.132 320.161 320.132C321.243 320.132 321.785 319.525 321.785 318.312H322.961C322.951 319.245 322.704 319.95 322.219 320.426C321.733 320.902 321.043 321.14 320.147 321.14C319.223 321.14 318.518 320.883 318.033 320.37C317.557 319.857 317.319 319.138 317.319 318.214V316.24C318.383 316.24 319.167 316.207 319.671 316.142C320.184 316.067 320.557 315.918 320.791 315.694C321.024 315.461 321.173 315.097 321.239 314.602H316.689V313.678H321.295V313.426V312.166H316.689V311.228H324.305V312.166H322.499V313.44ZM332.126 312.04V310.878H334.758V321H333.47V312.04H332.126ZM339.972 319.236L338.404 323.002H337.55L338.572 319.236H339.972ZM342.568 319.978C343.753 319.026 344.682 318.247 345.354 317.64C346.026 317.024 346.59 316.385 347.048 315.722C347.514 315.05 347.748 314.392 347.748 313.748C347.748 313.141 347.598 312.665 347.3 312.32C347.01 311.965 346.539 311.788 345.886 311.788C345.251 311.788 344.756 311.989 344.402 312.39C344.056 312.782 343.87 313.309 343.842 313.972H342.61C342.647 312.927 342.964 312.119 343.562 311.55C344.159 310.981 344.929 310.696 345.872 310.696C346.833 310.696 347.594 310.962 348.154 311.494C348.723 312.026 349.008 312.759 349.008 313.692C349.008 314.467 348.774 315.223 348.308 315.96C347.85 316.688 347.328 317.332 346.74 317.892C346.152 318.443 345.4 319.087 344.486 319.824H349.302V320.888H342.568V319.978ZM351.938 312.04V310.878H354.57V321H353.282V312.04H351.938ZM359.785 319.236L358.217 323.002H357.363L358.385 319.236H359.785ZM368.176 313.286C367.971 312.25 367.331 311.732 366.258 311.732C365.427 311.732 364.807 312.054 364.396 312.698C363.985 313.333 363.785 314.383 363.794 315.848C364.009 315.363 364.363 314.985 364.858 314.714C365.362 314.434 365.922 314.294 366.538 314.294C367.499 314.294 368.265 314.593 368.834 315.19C369.413 315.787 369.702 316.613 369.702 317.668C369.702 318.303 369.576 318.872 369.324 319.376C369.081 319.88 368.708 320.281 368.204 320.58C367.709 320.879 367.107 321.028 366.398 321.028C365.437 321.028 364.685 320.813 364.144 320.384C363.603 319.955 363.225 319.362 363.01 318.606C362.795 317.85 362.688 316.917 362.688 315.806C362.688 312.381 363.883 310.668 366.272 310.668C367.187 310.668 367.905 310.915 368.428 311.41C368.951 311.905 369.259 312.53 369.352 313.286H368.176ZM366.272 315.372C365.871 315.372 365.493 315.456 365.138 315.624C364.783 315.783 364.494 316.03 364.27 316.366C364.055 316.693 363.948 317.094 363.948 317.57C363.948 318.279 364.153 318.858 364.564 319.306C364.975 319.745 365.563 319.964 366.328 319.964C366.981 319.964 367.499 319.763 367.882 319.362C368.274 318.951 368.47 318.401 368.47 317.71C368.47 316.982 368.283 316.413 367.91 316.002C367.537 315.582 366.991 315.372 366.272 315.372ZM372.613 318.746V317.78L377.527 310.976H379.053V317.64H380.453V318.746H379.053V321H377.793V318.746H372.613ZM377.849 312.306L374.083 317.64H377.849V312.306ZM389.455 311.872L385.563 321H384.275L388.223 311.998H382.819V310.906H389.455V311.872Z" fill="#4A4A4A"/>
<rect x="30.7808" y="394" width="28" height="359.219" rx="14" transform="rotate(-90 30.7808 394)" fill="#F3F3F3"/>
<path d="M44.5615 393C37.3818 393 31.5615 387.18 31.5615 380C31.5615 372.82 37.3818 367 44.5615 367L93.2534 367L93.2534 393L44.5615 393Z" fill="#4E6DFF"/>
<path d="M36.216 411L33.892 407.01H32.352V411H31.078L31.078 401.242H34.228C34.9653 401.242 35.586 401.368 36.09 401.62C36.6033 401.872 36.986 402.213 37.238 402.642C37.49 403.071 37.616 403.561 37.616 404.112C37.616 404.784 37.42 405.377 37.028 405.89C36.6453 406.403 36.0667 406.744 35.292 406.912L37.742 411H36.216ZM32.352 405.988H34.228C34.9187 405.988 35.4367 405.82 35.782 405.484C36.1273 405.139 36.3 404.681 36.3 404.112C36.3 403.533 36.1273 403.085 35.782 402.768C35.446 402.451 34.928 402.292 34.228 402.292H32.352V405.988ZM48.0956 406.87C48.0956 407.113 48.0816 407.369 48.0536 407.64H41.9216C41.9682 408.396 42.2249 408.989 42.6916 409.418C43.1676 409.838 43.7416 410.048 44.4136 410.048C44.9642 410.048 45.4216 409.922 45.7856 409.67C46.1589 409.409 46.4202 409.063 46.5696 408.634H47.9416C47.7362 409.371 47.3256 409.973 46.7096 410.44C46.0936 410.897 45.3282 411.126 44.4136 411.126C43.6856 411.126 43.0322 410.963 42.4536 410.636C41.8842 410.309 41.4362 409.847 41.1096 409.25C40.7829 408.643 40.6196 407.943 40.6196 407.15C40.6196 406.357 40.7782 405.661 41.0956 405.064C41.4129 404.467 41.8562 404.009 42.4256 403.692C43.0042 403.365 43.6669 403.202 44.4136 403.202C45.1416 403.202 45.7856 403.361 46.3456 403.678C46.9056 403.995 47.3349 404.434 47.6336 404.994C47.9416 405.545 48.0956 406.17 48.0956 406.87ZM46.7796 406.604C46.7796 406.119 46.6722 405.703 46.4576 405.358C46.2429 405.003 45.9489 404.737 45.5756 404.56C45.2116 404.373 44.8056 404.28 44.3576 404.28C43.7136 404.28 43.1629 404.485 42.7056 404.896C42.2576 405.307 42.0009 405.876 41.9356 406.604H46.7796ZM54.4412 403.202C55.1039 403.202 55.6826 403.347 56.1772 403.636C56.6812 403.925 57.0546 404.289 57.2972 404.728V403.328H58.5852V411.168C58.5852 411.868 58.4359 412.489 58.1372 413.03C57.8386 413.581 57.4092 414.01 56.8492 414.318C56.2986 414.626 55.6546 414.78 54.9172 414.78C53.9092 414.78 53.0692 414.542 52.3972 414.066C51.7252 413.59 51.3286 412.941 51.2072 412.12H52.4672C52.6072 412.587 52.8966 412.96 53.3352 413.24C53.7739 413.529 54.3012 413.674 54.9172 413.674C55.6172 413.674 56.1866 413.455 56.6252 413.016C57.0732 412.577 57.2972 411.961 57.2972 411.168V409.558C57.0452 410.006 56.6719 410.379 56.1772 410.678C55.6826 410.977 55.1039 411.126 54.4412 411.126C53.7599 411.126 53.1392 410.958 52.5792 410.622C52.0286 410.286 51.5946 409.815 51.2772 409.208C50.9599 408.601 50.8012 407.911 50.8012 407.136C50.8012 406.352 50.9599 405.666 51.2772 405.078C51.5946 404.481 52.0286 404.019 52.5792 403.692C53.1392 403.365 53.7599 403.202 54.4412 403.202ZM57.2972 407.15C57.2972 406.571 57.1806 406.067 56.9472 405.638C56.7139 405.209 56.3966 404.882 55.9952 404.658C55.6032 404.425 55.1692 404.308 54.6932 404.308C54.2172 404.308 53.7832 404.42 53.3912 404.644C52.9992 404.868 52.6866 405.195 52.4532 405.624C52.2199 406.053 52.1032 406.557 52.1032 407.136C52.1032 407.724 52.2199 408.237 52.4532 408.676C52.6866 409.105 52.9992 409.437 53.3912 409.67C53.7832 409.894 54.2172 410.006 54.6932 410.006C55.1692 410.006 55.6032 409.894 55.9952 409.67C56.3966 409.437 56.7139 409.105 56.9472 408.676C57.1806 408.237 57.2972 407.729 57.2972 407.15ZM69.0422 403.328V411H67.7682V409.866C67.5255 410.258 67.1848 410.566 66.7462 410.79C66.3168 411.005 65.8408 411.112 65.3182 411.112C64.7208 411.112 64.1842 410.991 63.7082 410.748C63.2322 410.496 62.8542 410.123 62.5742 409.628C62.3035 409.133 62.1682 408.531 62.1682 407.822V403.328H63.4282V407.654C63.4282 408.41 63.6195 408.993 64.0022 409.404C64.3848 409.805 64.9075 410.006 65.5702 410.006C66.2515 410.006 66.7882 409.796 67.1802 409.376C67.5722 408.956 67.7682 408.345 67.7682 407.542V403.328H69.0422ZM73.9672 400.64V411H72.6932V400.64H73.9672ZM77.1625 407.136C77.1625 406.352 77.3212 405.666 77.6385 405.078C77.9559 404.481 78.3899 404.019 78.9405 403.692C79.5005 403.365 80.1212 403.202 80.8025 403.202C81.4745 403.202 82.0579 403.347 82.5525 403.636C83.0472 403.925 83.4159 404.289 83.6585 404.728V403.328H84.9465V411H83.6585V409.572C83.4065 410.02 83.0285 410.393 82.5245 410.692C82.0299 410.981 81.4512 411.126 80.7885 411.126C80.1072 411.126 79.4912 410.958 78.9405 410.622C78.3899 410.286 77.9559 409.815 77.6385 409.208C77.3212 408.601 77.1625 407.911 77.1625 407.136ZM83.6585 407.15C83.6585 406.571 83.5419 406.067 83.3085 405.638C83.0752 405.209 82.7579 404.882 82.3565 404.658C81.9645 404.425 81.5305 404.308 81.0545 404.308C80.5785 404.308 80.1445 404.42 79.7525 404.644C79.3605 404.868 79.0479 405.195 78.8145 405.624C78.5812 406.053 78.4645 406.557 78.4645 407.136C78.4645 407.724 78.5812 408.237 78.8145 408.676C79.0479 409.105 79.3605 409.437 79.7525 409.67C80.1445 409.894 80.5785 410.006 81.0545 410.006C81.5305 410.006 81.9645 409.894 82.3565 409.67C82.7579 409.437 83.0752 409.105 83.3085 408.676C83.5419 408.237 83.6585 407.729 83.6585 407.15ZM89.8735 404.574C90.0975 404.135 90.4148 403.795 90.8255 403.552C91.2455 403.309 91.7542 403.188 92.3515 403.188V404.504H92.0155C90.5875 404.504 89.8735 405.279 89.8735 406.828V411H88.5995V403.328H89.8735V404.574ZM110.453 401.312V411H109.179V403.776L105.959 411H105.063L101.829 403.762V411H100.555V401.312H101.927L105.511 409.32L109.095 401.312H110.453ZM120.917 403.328V411H119.643V409.866C119.4 410.258 119.06 410.566 118.621 410.79C118.192 411.005 117.716 411.112 117.193 411.112C116.596 411.112 116.059 410.991 115.583 410.748C115.107 410.496 114.729 410.123 114.449 409.628C114.178 409.133 114.043 408.531 114.043 407.822V403.328H115.303V407.654C115.303 408.41 115.494 408.993 115.877 409.404C116.26 409.805 116.782 410.006 117.445 410.006C118.126 410.006 118.663 409.796 119.055 409.376C119.447 408.956 119.643 408.345 119.643 407.542V403.328H120.917ZM126.122 404.378V408.9C126.122 409.273 126.202 409.539 126.36 409.698C126.519 409.847 126.794 409.922 127.186 409.922H128.124V411H126.976C126.267 411 125.735 410.837 125.38 410.51C125.026 410.183 124.848 409.647 124.848 408.9V404.378H123.854V403.328H124.848V401.396H126.122V403.328H128.124V404.378H126.122ZM137.972 403.328V411H136.698V409.866C136.455 410.258 136.115 410.566 135.676 410.79C135.247 411.005 134.771 411.112 134.248 411.112C133.651 411.112 133.114 410.991 132.638 410.748C132.162 410.496 131.784 410.123 131.504 409.628C131.233 409.133 131.098 408.531 131.098 407.822V403.328H132.358V407.654C132.358 408.41 132.549 408.993 132.932 409.404C133.315 409.805 133.837 410.006 134.5 410.006C135.181 410.006 135.718 409.796 136.11 409.376C136.502 408.956 136.698 408.345 136.698 407.542V403.328H137.972ZM141.147 407.136C141.147 406.352 141.306 405.666 141.623 405.078C141.94 404.481 142.374 404.019 142.925 403.692C143.485 403.365 144.106 403.202 144.787 403.202C145.459 403.202 146.042 403.347 146.537 403.636C147.032 403.925 147.4 404.289 147.643 404.728V403.328H148.931V411H147.643V409.572C147.391 410.02 147.013 410.393 146.509 410.692C146.014 410.981 145.436 411.126 144.773 411.126C144.092 411.126 143.476 410.958 142.925 410.622C142.374 410.286 141.94 409.815 141.623 409.208C141.306 408.601 141.147 407.911 141.147 407.136ZM147.643 407.15C147.643 406.571 147.526 406.067 147.293 405.638C147.06 405.209 146.742 404.882 146.341 404.658C145.949 404.425 145.515 404.308 145.039 404.308C144.563 404.308 144.129 404.42 143.737 404.644C143.345 404.868 143.032 405.195 142.799 405.624C142.566 406.053 142.449 406.557 142.449 407.136C142.449 407.724 142.566 408.237 142.799 408.676C143.032 409.105 143.345 409.437 143.737 409.67C144.129 409.894 144.563 410.006 145.039 410.006C145.515 410.006 145.949 409.894 146.341 409.67C146.742 409.437 147.06 409.105 147.293 408.676C147.526 408.237 147.643 407.729 147.643 407.15ZM153.858 400.64V411H152.584V400.64H153.858ZM168.278 401.242V402.278H164.036V405.568H167.48V406.604H164.036V411H162.762V401.242H168.278ZM178.12 403.328V411H176.846V409.866C176.604 410.258 176.263 410.566 175.824 410.79C175.395 411.005 174.919 411.112 174.396 411.112C173.799 411.112 173.262 410.991 172.786 410.748C172.31 410.496 171.932 410.123 171.652 409.628C171.382 409.133 171.246 408.531 171.246 407.822V403.328H172.506V407.654C172.506 408.41 172.698 408.993 173.08 409.404C173.463 409.805 173.986 410.006 174.648 410.006C175.33 410.006 175.866 409.796 176.258 409.376C176.65 408.956 176.846 408.345 176.846 407.542V403.328H178.12ZM185.509 403.188C186.443 403.188 187.199 403.473 187.777 404.042C188.356 404.602 188.645 405.414 188.645 406.478V411H187.385V406.66C187.385 405.895 187.194 405.311 186.811 404.91C186.429 404.499 185.906 404.294 185.243 404.294C184.571 404.294 184.035 404.504 183.633 404.924C183.241 405.344 183.045 405.955 183.045 406.758V411H181.771V403.328H183.045V404.42C183.297 404.028 183.638 403.725 184.067 403.51C184.506 403.295 184.987 403.188 185.509 403.188ZM191.75 407.136C191.75 406.352 191.909 405.666 192.226 405.078C192.544 404.481 192.978 404.019 193.528 403.692C194.088 403.365 194.714 403.202 195.404 403.202C196.002 403.202 196.557 403.342 197.07 403.622C197.584 403.893 197.976 404.252 198.246 404.7V400.64H199.534V411H198.246V409.558C197.994 410.015 197.621 410.393 197.126 410.692C196.632 410.981 196.053 411.126 195.39 411.126C194.709 411.126 194.088 410.958 193.528 410.622C192.978 410.286 192.544 409.815 192.226 409.208C191.909 408.601 191.75 407.911 191.75 407.136ZM198.246 407.15C198.246 406.571 198.13 406.067 197.896 405.638C197.663 405.209 197.346 404.882 196.944 404.658C196.552 404.425 196.118 404.308 195.642 404.308C195.166 404.308 194.732 404.42 194.34 404.644C193.948 404.868 193.636 405.195 193.402 405.624C193.169 406.053 193.052 406.557 193.052 407.136C193.052 407.724 193.169 408.237 193.402 408.676C193.636 409.105 193.948 409.437 194.34 409.67C194.732 409.894 195.166 410.006 195.642 410.006C196.118 410.006 196.552 409.894 196.944 409.67C197.346 409.437 197.663 409.105 197.896 408.676C198.13 408.237 198.246 407.729 198.246 407.15Z" fill="black"/>
<path d="M314.692 403.44V403.678H316.498V404.602H314.622C314.538 405.246 314.351 405.75 314.062 406.114C313.782 406.478 313.371 406.739 312.83 406.898C312.298 407.057 311.589 407.136 310.702 407.136V408.242C310.702 409.502 311.253 410.132 312.354 410.132C313.437 410.132 313.978 409.525 313.978 408.312H315.154C315.145 409.245 314.897 409.95 314.412 410.426C313.927 410.902 313.236 411.14 312.34 411.14C311.416 411.14 310.711 410.883 310.226 410.37C309.75 409.857 309.512 409.138 309.512 408.214V406.24C310.576 406.24 311.36 406.207 311.864 406.142C312.377 406.067 312.751 405.918 312.984 405.694C313.217 405.461 313.367 405.097 313.432 404.602H308.882V403.678H313.488V403.426V402.166H308.882V401.228H316.498V402.166H314.692V403.44ZM324.501 409.978C325.686 409.026 326.615 408.247 327.287 407.64C327.959 407.024 328.524 406.385 328.981 405.722C329.448 405.05 329.681 404.392 329.681 403.748C329.681 403.141 329.532 402.665 329.233 402.32C328.944 401.965 328.472 401.788 327.819 401.788C327.184 401.788 326.69 401.989 326.335 402.39C325.99 402.782 325.803 403.309 325.775 403.972H324.543C324.58 402.927 324.898 402.119 325.495 401.55C326.092 400.981 326.862 400.696 327.805 400.696C328.766 400.696 329.527 400.962 330.087 401.494C330.656 402.026 330.941 402.759 330.941 403.692C330.941 404.467 330.708 405.223 330.241 405.96C329.784 406.688 329.261 407.332 328.673 407.892C328.085 408.443 327.334 409.087 326.419 409.824H331.235V410.888H324.501V409.978ZM335.734 409.236L334.166 413.002H333.312L334.334 409.236H335.734ZM344.713 401.872L340.821 411H339.533L343.481 401.998H338.077V400.906H344.713V401.872ZM347.626 405.834C347.626 404.229 347.887 402.978 348.41 402.082C348.932 401.177 349.847 400.724 351.154 400.724C352.451 400.724 353.361 401.177 353.884 402.082C354.406 402.978 354.668 404.229 354.668 405.834C354.668 407.467 354.406 408.737 353.884 409.642C353.361 410.547 352.451 411 351.154 411C349.847 411 348.932 410.547 348.41 409.642C347.887 408.737 347.626 407.467 347.626 405.834ZM353.408 405.834C353.408 405.022 353.352 404.336 353.24 403.776C353.137 403.207 352.918 402.749 352.582 402.404C352.255 402.059 351.779 401.886 351.154 401.886C350.519 401.886 350.034 402.059 349.698 402.404C349.371 402.749 349.152 403.207 349.04 403.776C348.937 404.336 348.886 405.022 348.886 405.834C348.886 406.674 348.937 407.379 349.04 407.948C349.152 408.517 349.371 408.975 349.698 409.32C350.034 409.665 350.519 409.838 351.154 409.838C351.779 409.838 352.255 409.665 352.582 409.32C352.918 408.975 353.137 408.517 353.24 407.948C353.352 407.379 353.408 406.674 353.408 405.834ZM359.443 409.236L357.875 413.002H357.021L358.043 409.236H359.443ZM362.192 405.834C362.192 404.229 362.454 402.978 362.976 402.082C363.499 401.177 364.414 400.724 365.72 400.724C367.018 400.724 367.928 401.177 368.45 402.082C368.973 402.978 369.234 404.229 369.234 405.834C369.234 407.467 368.973 408.737 368.45 409.642C367.928 410.547 367.018 411 365.72 411C364.414 411 363.499 410.547 362.976 409.642C362.454 408.737 362.192 407.467 362.192 405.834ZM367.974 405.834C367.974 405.022 367.918 404.336 367.806 403.776C367.704 403.207 367.484 402.749 367.148 402.404C366.822 402.059 366.346 401.886 365.72 401.886C365.086 401.886 364.6 402.059 364.264 402.404C363.938 402.749 363.718 403.207 363.606 403.776C363.504 404.336 363.452 405.022 363.452 405.834C363.452 406.674 363.504 407.379 363.606 407.948C363.718 408.517 363.938 408.975 364.264 409.32C364.6 409.665 365.086 409.838 365.72 409.838C366.346 409.838 366.822 409.665 367.148 409.32C367.484 408.975 367.704 408.517 367.806 407.948C367.918 407.379 367.974 406.674 367.974 405.834ZM374.331 405.736C373.809 405.531 373.407 405.232 373.127 404.84C372.847 404.448 372.707 403.972 372.707 403.412C372.707 402.908 372.833 402.455 373.085 402.054C373.337 401.643 373.711 401.321 374.205 401.088C374.709 400.845 375.316 400.724 376.025 400.724C376.735 400.724 377.337 400.845 377.831 401.088C378.335 401.321 378.713 401.643 378.965 402.054C379.227 402.455 379.357 402.908 379.357 403.412C379.357 403.953 379.213 404.429 378.923 404.84C378.634 405.241 378.237 405.54 377.733 405.736C378.312 405.913 378.769 406.226 379.105 406.674C379.451 407.113 379.623 407.645 379.623 408.27C379.623 408.877 379.474 409.409 379.175 409.866C378.877 410.314 378.452 410.664 377.901 410.916C377.36 411.159 376.735 411.28 376.025 411.28C375.316 411.28 374.691 411.159 374.149 410.916C373.617 410.664 373.202 410.314 372.903 409.866C372.605 409.409 372.455 408.877 372.455 408.27C372.455 407.645 372.623 407.108 372.959 406.66C373.295 406.212 373.753 405.904 374.331 405.736ZM378.125 403.566C378.125 402.997 377.939 402.558 377.565 402.25C377.192 401.942 376.679 401.788 376.025 401.788C375.381 401.788 374.873 401.942 374.499 402.25C374.126 402.558 373.939 403.001 373.939 403.58C373.939 404.103 374.131 404.523 374.513 404.84C374.905 405.157 375.409 405.316 376.025 405.316C376.651 405.316 377.155 405.157 377.537 404.84C377.929 404.513 378.125 404.089 378.125 403.566ZM376.025 406.296C375.335 406.296 374.77 406.459 374.331 406.786C373.893 407.103 373.673 407.584 373.673 408.228C373.673 408.825 373.883 409.306 374.303 409.67C374.733 410.034 375.307 410.216 376.025 410.216C376.744 410.216 377.313 410.034 377.733 409.67C378.153 409.306 378.363 408.825 378.363 408.228C378.363 407.603 378.149 407.127 377.719 406.8C377.29 406.464 376.725 406.296 376.025 406.296ZM382.661 409.978C383.847 409.026 384.775 408.247 385.447 407.64C386.119 407.024 386.684 406.385 387.141 405.722C387.608 405.05 387.841 404.392 387.841 403.748C387.841 403.141 387.692 402.665 387.393 402.32C387.104 401.965 386.633 401.788 385.979 401.788C385.345 401.788 384.85 401.989 384.495 402.39C384.15 402.782 383.963 403.309 383.935 403.972H382.703C382.741 402.927 383.058 402.119 383.655 401.55C384.253 400.981 385.023 400.696 385.965 400.696C386.927 400.696 387.687 400.962 388.247 401.494C388.817 402.026 389.101 402.759 389.101 403.692C389.101 404.467 388.868 405.223 388.401 405.96C387.944 406.688 387.421 407.332 386.833 407.892C386.245 408.443 385.494 409.087 384.579 409.824H389.395V410.888H382.661V409.978Z" fill="#4A4A4A"/>
<rect x="30.7808" y="484" width="28" height="359.219" rx="14" transform="rotate(-90 30.7808 484)" fill="#F3F3F3"/>
<path d="M44.5615 483C37.3818 483 31.5615 477.18 31.5615 470C31.5615 462.82 37.3818 457 44.5615 457L124.49 457L124.49 483L44.5615 483Z" fill="#4E6DFF"/>
<path d="M37.084 491.242V492.278H34.424V501H33.15V492.278H30.476V491.242H37.084ZM43.9602 493.188C44.5389 493.188 45.0616 493.314 45.5282 493.566C45.9949 493.809 46.3589 494.177 46.6202 494.672C46.8909 495.167 47.0262 495.769 47.0262 496.478V501H45.7662V496.66C45.7662 495.895 45.5749 495.311 45.1922 494.91C44.8096 494.499 44.2869 494.294 43.6242 494.294C42.9522 494.294 42.4156 494.504 42.0142 494.924C41.6222 495.344 41.4262 495.955 41.4262 496.758V501H40.1522V490.64H41.4262V494.42C41.6782 494.028 42.0236 493.725 42.4622 493.51C42.9102 493.295 43.4096 493.188 43.9602 493.188ZM51.2653 492.082C51.0226 492.082 50.8173 491.998 50.6493 491.83C50.4813 491.662 50.3973 491.457 50.3973 491.214C50.3973 490.971 50.4813 490.766 50.6493 490.598C50.8173 490.43 51.0226 490.346 51.2653 490.346C51.4986 490.346 51.6946 490.43 51.8533 490.598C52.0213 490.766 52.1053 490.971 52.1053 491.214C52.1053 491.457 52.0213 491.662 51.8533 491.83C51.6946 491.998 51.4986 492.082 51.2653 492.082ZM51.8813 493.328V501H50.6073V493.328H51.8813ZM58.2686 501.126C57.6806 501.126 57.1533 501.028 56.6866 500.832C56.2199 500.627 55.8513 500.347 55.5806 499.992C55.3099 499.628 55.1606 499.213 55.1326 498.746H56.4486C56.4859 499.129 56.6633 499.441 56.9806 499.684C57.3073 499.927 57.7319 500.048 58.2546 500.048C58.7399 500.048 59.1226 499.941 59.4026 499.726C59.6826 499.511 59.8226 499.241 59.8226 498.914C59.8226 498.578 59.6733 498.331 59.3746 498.172C59.0759 498.004 58.6139 497.841 57.9886 497.682C57.4193 497.533 56.9526 497.383 56.5886 497.234C56.2339 497.075 55.9259 496.847 55.6646 496.548C55.4126 496.24 55.2866 495.839 55.2866 495.344C55.2866 494.952 55.4033 494.593 55.6366 494.266C55.8699 493.939 56.2013 493.683 56.6306 493.496C57.0599 493.3 57.5499 493.202 58.1006 493.202C58.9499 493.202 59.6359 493.417 60.1586 493.846C60.6813 494.275 60.9613 494.863 60.9986 495.61H59.7246C59.6966 495.209 59.5333 494.887 59.2346 494.644C58.9453 494.401 58.5533 494.28 58.0586 494.28C57.6013 494.28 57.2373 494.378 56.9666 494.574C56.6959 494.77 56.5606 495.027 56.5606 495.344C56.5606 495.596 56.6399 495.806 56.7986 495.974C56.9666 496.133 57.1719 496.263 57.4146 496.366C57.6666 496.459 58.0119 496.567 58.4506 496.688C59.0013 496.837 59.4493 496.987 59.7946 497.136C60.1399 497.276 60.4339 497.491 60.6766 497.78C60.9286 498.069 61.0593 498.447 61.0686 498.914C61.0686 499.334 60.9519 499.712 60.7186 500.048C60.4853 500.384 60.1539 500.65 59.7246 500.846C59.3046 501.033 58.8193 501.126 58.2686 501.126ZM75.1155 491.242V492.278H70.8735V495.568H74.3175V496.604H70.8735V501H69.5995V491.242H75.1155ZM84.9582 493.328V501H83.6842V499.866C83.4415 500.258 83.1008 500.566 82.6622 500.79C82.2328 501.005 81.7568 501.112 81.2342 501.112C80.6368 501.112 80.1002 500.991 79.6242 500.748C79.1482 500.496 78.7702 500.123 78.4902 499.628C78.2195 499.133 78.0842 498.531 78.0842 497.822V493.328H79.3442V497.654C79.3442 498.41 79.5355 498.993 79.9182 499.404C80.3008 499.805 80.8235 500.006 81.4862 500.006C82.1675 500.006 82.7042 499.796 83.0962 499.376C83.4882 498.956 83.6842 498.345 83.6842 497.542V493.328H84.9582ZM92.3473 493.188C93.2806 493.188 94.0366 493.473 94.6153 494.042C95.1939 494.602 95.4833 495.414 95.4833 496.478V501H94.2233V496.66C94.2233 495.895 94.0319 495.311 93.6493 494.91C93.2666 494.499 92.7439 494.294 92.0813 494.294C91.4093 494.294 90.8726 494.504 90.4713 494.924C90.0793 495.344 89.8833 495.955 89.8833 496.758V501H88.6093V493.328H89.8833V494.42C90.1353 494.028 90.4759 493.725 90.9053 493.51C91.3439 493.295 91.8246 493.188 92.3473 493.188ZM98.5883 497.136C98.5883 496.352 98.747 495.666 99.0643 495.078C99.3817 494.481 99.8157 494.019 100.366 493.692C100.926 493.365 101.552 493.202 102.242 493.202C102.84 493.202 103.395 493.342 103.908 493.622C104.422 493.893 104.814 494.252 105.084 494.7V490.64H106.372V501H105.084V499.558C104.832 500.015 104.459 500.393 103.964 500.692C103.47 500.981 102.891 501.126 102.228 501.126C101.547 501.126 100.926 500.958 100.366 500.622C99.8157 500.286 99.3817 499.815 99.0643 499.208C98.747 498.601 98.5883 497.911 98.5883 497.136ZM105.084 497.15C105.084 496.571 104.968 496.067 104.734 495.638C104.501 495.209 104.184 494.882 103.782 494.658C103.39 494.425 102.956 494.308 102.48 494.308C102.004 494.308 101.57 494.42 101.178 494.644C100.786 494.868 100.474 495.195 100.24 495.624C100.007 496.053 99.8903 496.557 99.8903 497.136C99.8903 497.724 100.007 498.237 100.24 498.676C100.474 499.105 100.786 499.437 101.178 499.67C101.57 499.894 102.004 500.006 102.48 500.006C102.956 500.006 103.39 499.894 103.782 499.67C104.184 499.437 104.501 499.105 104.734 498.676C104.968 498.237 105.084 497.729 105.084 497.15ZM118.604 501.126C117.885 501.126 117.232 500.963 116.644 500.636C116.065 500.309 115.608 499.847 115.272 499.25C114.945 498.643 114.782 497.943 114.782 497.15C114.782 496.366 114.95 495.675 115.286 495.078C115.631 494.471 116.098 494.009 116.686 493.692C117.274 493.365 117.932 493.202 118.66 493.202C119.388 493.202 120.046 493.365 120.634 493.692C121.222 494.009 121.684 494.467 122.02 495.064C122.365 495.661 122.538 496.357 122.538 497.15C122.538 497.943 122.36 498.643 122.006 499.25C121.66 499.847 121.189 500.309 120.592 500.636C119.994 500.963 119.332 501.126 118.604 501.126ZM118.604 500.006C119.061 500.006 119.49 499.899 119.892 499.684C120.293 499.469 120.615 499.147 120.858 498.718C121.11 498.289 121.236 497.766 121.236 497.15C121.236 496.534 121.114 496.011 120.872 495.582C120.629 495.153 120.312 494.835 119.92 494.63C119.528 494.415 119.103 494.308 118.646 494.308C118.179 494.308 117.75 494.415 117.358 494.63C116.975 494.835 116.667 495.153 116.434 495.582C116.2 496.011 116.084 496.534 116.084 497.15C116.084 497.775 116.196 498.303 116.42 498.732C116.653 499.161 116.961 499.483 117.344 499.698C117.726 499.903 118.146 500.006 118.604 500.006ZM129.451 493.188C130.384 493.188 131.14 493.473 131.719 494.042C132.297 494.602 132.587 495.414 132.587 496.478V501H131.327V496.66C131.327 495.895 131.135 495.311 130.753 494.91C130.37 494.499 129.847 494.294 129.185 494.294C128.513 494.294 127.976 494.504 127.575 494.924C127.183 495.344 126.987 495.955 126.987 496.758V501H125.713V493.328H126.987V494.42C127.239 494.028 127.579 493.725 128.009 493.51C128.447 493.295 128.928 493.188 129.451 493.188ZM148.792 494.07C148.522 493.501 148.13 493.062 147.616 492.754C147.103 492.437 146.506 492.278 145.824 492.278C145.143 492.278 144.527 492.437 143.976 492.754C143.435 493.062 143.006 493.51 142.688 494.098C142.38 494.677 142.226 495.349 142.226 496.114C142.226 496.879 142.38 497.551 142.688 498.13C143.006 498.709 143.435 499.157 143.976 499.474C144.527 499.782 145.143 499.936 145.824 499.936C146.776 499.936 147.56 499.651 148.176 499.082C148.792 498.513 149.152 497.743 149.254 496.772H145.362V495.736H150.612V496.716C150.538 497.519 150.286 498.256 149.856 498.928C149.427 499.591 148.862 500.118 148.162 500.51C147.462 500.893 146.683 501.084 145.824 501.084C144.919 501.084 144.093 500.874 143.346 500.454C142.6 500.025 142.007 499.432 141.568 498.676C141.139 497.92 140.924 497.066 140.924 496.114C140.924 495.162 141.139 494.308 141.568 493.552C142.007 492.787 142.6 492.194 143.346 491.774C144.093 491.345 144.919 491.13 145.824 491.13C146.86 491.13 147.775 491.387 148.568 491.9C149.371 492.413 149.954 493.137 150.318 494.07H148.792ZM153.321 497.136C153.321 496.352 153.479 495.666 153.797 495.078C154.114 494.481 154.548 494.019 155.099 493.692C155.659 493.365 156.279 493.202 156.961 493.202C157.633 493.202 158.216 493.347 158.711 493.636C159.205 493.925 159.574 494.289 159.817 494.728V493.328H161.105V501H159.817V499.572C159.565 500.02 159.187 500.393 158.683 500.692C158.188 500.981 157.609 501.126 156.947 501.126C156.265 501.126 155.649 500.958 155.099 500.622C154.548 500.286 154.114 499.815 153.797 499.208C153.479 498.601 153.321 497.911 153.321 497.136ZM159.817 497.15C159.817 496.571 159.7 496.067 159.467 495.638C159.233 495.209 158.916 494.882 158.515 494.658C158.123 494.425 157.689 494.308 157.213 494.308C156.737 494.308 156.303 494.42 155.911 494.644C155.519 494.868 155.206 495.195 154.973 495.624C154.739 496.053 154.623 496.557 154.623 497.136C154.623 497.724 154.739 498.237 154.973 498.676C155.206 499.105 155.519 499.437 155.911 499.67C156.303 499.894 156.737 500.006 157.213 500.006C157.689 500.006 158.123 499.894 158.515 499.67C158.916 499.437 159.233 499.105 159.467 498.676C159.7 498.237 159.817 497.729 159.817 497.15ZM166.032 494.742C166.284 494.303 166.657 493.939 167.152 493.65C167.656 493.351 168.239 493.202 168.902 493.202C169.583 493.202 170.199 493.365 170.75 493.692C171.31 494.019 171.748 494.481 172.066 495.078C172.383 495.666 172.542 496.352 172.542 497.136C172.542 497.911 172.383 498.601 172.066 499.208C171.748 499.815 171.31 500.286 170.75 500.622C170.199 500.958 169.583 501.126 168.902 501.126C168.248 501.126 167.67 500.981 167.166 500.692C166.671 500.393 166.293 500.025 166.032 499.586V504.64H164.758V493.328H166.032V494.742ZM171.24 497.136C171.24 496.557 171.123 496.053 170.89 495.624C170.656 495.195 170.339 494.868 169.938 494.644C169.546 494.42 169.112 494.308 168.636 494.308C168.169 494.308 167.735 494.425 167.334 494.658C166.942 494.882 166.624 495.213 166.382 495.652C166.148 496.081 166.032 496.581 166.032 497.15C166.032 497.729 166.148 498.237 166.382 498.676C166.624 499.105 166.942 499.437 167.334 499.67C167.735 499.894 168.169 500.006 168.636 500.006C169.112 500.006 169.546 499.894 169.938 499.67C170.339 499.437 170.656 499.105 170.89 498.676C171.123 498.237 171.24 497.724 171.24 497.136ZM176.993 494.742C177.245 494.303 177.618 493.939 178.113 493.65C178.617 493.351 179.2 493.202 179.863 493.202C180.544 493.202 181.16 493.365 181.711 493.692C182.271 494.019 182.709 494.481 183.027 495.078C183.344 495.666 183.503 496.352 183.503 497.136C183.503 497.911 183.344 498.601 183.027 499.208C182.709 499.815 182.271 500.286 181.711 500.622C181.16 500.958 180.544 501.126 179.863 501.126C179.209 501.126 178.631 500.981 178.127 500.692C177.632 500.393 177.254 500.025 176.993 499.586V504.64H175.719V493.328H176.993V494.742ZM182.201 497.136C182.201 496.557 182.084 496.053 181.851 495.624C181.617 495.195 181.3 494.868 180.899 494.644C180.507 494.42 180.073 494.308 179.597 494.308C179.13 494.308 178.696 494.425 178.295 494.658C177.903 494.882 177.585 495.213 177.343 495.652C177.109 496.081 176.993 496.581 176.993 497.15C176.993 497.729 177.109 498.237 177.343 498.676C177.585 499.105 177.903 499.437 178.295 499.67C178.696 499.894 179.13 500.006 179.597 500.006C180.073 500.006 180.507 499.894 180.899 499.67C181.3 499.437 181.617 499.105 181.851 498.676C182.084 498.237 182.201 497.724 182.201 497.136ZM193.288 493.328L188.668 504.612H187.352L188.864 500.916L185.77 493.328H187.184L189.592 499.544L191.972 493.328H193.288Z" fill="black"/>
<path d="M313.885 493.44V493.678H315.691V494.602H313.815C313.731 495.246 313.545 495.75 313.255 496.114C312.975 496.478 312.565 496.739 312.023 496.898C311.491 497.057 310.782 497.136 309.895 497.136V498.242C309.895 499.502 310.446 500.132 311.547 500.132C312.63 500.132 313.171 499.525 313.171 498.312H314.347C314.338 499.245 314.091 499.95 313.605 500.426C313.12 500.902 312.429 501.14 311.533 501.14C310.609 501.14 309.905 500.883 309.419 500.37C308.943 499.857 308.705 499.138 308.705 498.214V496.24C309.769 496.24 310.553 496.207 311.057 496.142C311.571 496.067 311.944 495.918 312.177 495.694C312.411 495.461 312.56 495.097 312.625 494.602H308.075V493.678H312.681V493.426V492.166H308.075V491.228H315.691V492.166H313.885V493.44ZM323.694 499.978C324.88 499.026 325.808 498.247 326.48 497.64C327.152 497.024 327.717 496.385 328.174 495.722C328.641 495.05 328.874 494.392 328.874 493.748C328.874 493.141 328.725 492.665 328.426 492.32C328.137 491.965 327.666 491.788 327.012 491.788C326.378 491.788 325.883 491.989 325.528 492.39C325.183 492.782 324.996 493.309 324.968 493.972H323.736C323.774 492.927 324.091 492.119 324.688 491.55C325.286 490.981 326.056 490.696 326.998 490.696C327.96 490.696 328.72 490.962 329.28 491.494C329.85 492.026 330.134 492.759 330.134 493.692C330.134 494.467 329.901 495.223 329.434 495.96C328.977 496.688 328.454 497.332 327.866 497.892C327.278 498.443 326.527 499.087 325.612 499.824H330.428V500.888H323.694V499.978ZM334.927 499.236L333.359 503.002H332.505L333.527 499.236H334.927ZM339.525 495.736C339.002 495.531 338.601 495.232 338.321 494.84C338.041 494.448 337.901 493.972 337.901 493.412C337.901 492.908 338.027 492.455 338.279 492.054C338.531 491.643 338.904 491.321 339.399 491.088C339.903 490.845 340.509 490.724 341.219 490.724C341.928 490.724 342.53 490.845 343.025 491.088C343.529 491.321 343.907 491.643 344.159 492.054C344.42 492.455 344.551 492.908 344.551 493.412C344.551 493.953 344.406 494.429 344.117 494.84C343.827 495.241 343.431 495.54 342.927 495.736C343.505 495.913 343.963 496.226 344.299 496.674C344.644 497.113 344.817 497.645 344.817 498.27C344.817 498.877 344.667 499.409 344.369 499.866C344.07 500.314 343.645 500.664 343.095 500.916C342.553 501.159 341.928 501.28 341.219 501.28C340.509 501.28 339.884 501.159 339.343 500.916C338.811 500.664 338.395 500.314 338.097 499.866C337.798 499.409 337.649 498.877 337.649 498.27C337.649 497.645 337.817 497.108 338.153 496.66C338.489 496.212 338.946 495.904 339.525 495.736ZM343.319 493.566C343.319 492.997 343.132 492.558 342.759 492.25C342.385 491.942 341.872 491.788 341.219 491.788C340.575 491.788 340.066 491.942 339.693 492.25C339.319 492.558 339.133 493.001 339.133 493.58C339.133 494.103 339.324 494.523 339.707 494.84C340.099 495.157 340.603 495.316 341.219 495.316C341.844 495.316 342.348 495.157 342.731 494.84C343.123 494.513 343.319 494.089 343.319 493.566ZM341.219 496.296C340.528 496.296 339.963 496.459 339.525 496.786C339.086 497.103 338.867 497.584 338.867 498.228C338.867 498.825 339.077 499.306 339.497 499.67C339.926 500.034 340.5 500.216 341.219 500.216C341.937 500.216 342.507 500.034 342.927 499.67C343.347 499.306 343.557 498.825 343.557 498.228C343.557 497.603 343.342 497.127 342.913 496.8C342.483 496.464 341.919 496.296 341.219 496.296ZM347.701 498.746V497.78L352.615 490.976H354.141V497.64H355.541V498.746H354.141V501H352.881V498.746H347.701ZM352.937 492.306L349.171 497.64H352.937V492.306ZM359.839 499.236L358.271 503.002H357.417L358.439 499.236H359.839ZM364.437 495.736C363.914 495.531 363.513 495.232 363.233 494.84C362.953 494.448 362.813 493.972 362.813 493.412C362.813 492.908 362.939 492.455 363.191 492.054C363.443 491.643 363.816 491.321 364.311 491.088C364.815 490.845 365.421 490.724 366.131 490.724C366.84 490.724 367.442 490.845 367.937 491.088C368.441 491.321 368.819 491.643 369.071 492.054C369.332 492.455 369.463 492.908 369.463 493.412C369.463 493.953 369.318 494.429 369.029 494.84C368.739 495.241 368.343 495.54 367.839 495.736C368.417 495.913 368.875 496.226 369.211 496.674C369.556 497.113 369.729 497.645 369.729 498.27C369.729 498.877 369.579 499.409 369.281 499.866C368.982 500.314 368.557 500.664 368.007 500.916C367.465 501.159 366.84 501.28 366.131 501.28C365.421 501.28 364.796 501.159 364.255 500.916C363.723 500.664 363.307 500.314 363.009 499.866C362.71 499.409 362.561 498.877 362.561 498.27C362.561 497.645 362.729 497.108 363.065 496.66C363.401 496.212 363.858 495.904 364.437 495.736ZM368.231 493.566C368.231 492.997 368.044 492.558 367.671 492.25C367.297 491.942 366.784 491.788 366.131 491.788C365.487 491.788 364.978 491.942 364.605 492.25C364.231 492.558 364.045 493.001 364.045 493.58C364.045 494.103 364.236 494.523 364.619 494.84C365.011 495.157 365.515 495.316 366.131 495.316C366.756 495.316 367.26 495.157 367.643 494.84C368.035 494.513 368.231 494.089 368.231 493.566ZM366.131 496.296C365.44 496.296 364.875 496.459 364.437 496.786C363.998 497.103 363.779 497.584 363.779 498.228C363.779 498.825 363.989 499.306 364.409 499.67C364.838 500.034 365.412 500.216 366.131 500.216C366.849 500.216 367.419 500.034 367.839 499.67C368.259 499.306 368.469 498.825 368.469 498.228C368.469 497.603 368.254 497.127 367.825 496.8C367.395 496.464 366.831 496.296 366.131 496.296ZM372.613 498.746V497.78L377.527 490.976H379.053V497.64H380.453V498.746H379.053V501H377.793V498.746H372.613ZM377.849 492.306L374.083 497.64H377.849V492.306ZM389.455 491.872L385.563 501H384.275L388.223 491.998H382.819V490.906H389.455V491.872Z" fill="#4A4A4A"/>
<defs>
<filter id="filter0_di_138_246" x="96" y="486" width="228" height="132" filterUnits="userSpaceOnUse" color-interpolation-filters="sRGB">
<feFlood flood-opacity="0" result="BackgroundImageFix"/>
<feColorMatrix in="SourceAlpha" type="matrix" values="0 0 0 0 0 0 0 0 0 0 0 0 0 0 0 0 0 0 127 0" result="hardAlpha"/>
<feOffset/>
<feGaussianBlur stdDeviation="20"/>
<feComposite in2="hardAlpha" operator="out"/>
<feColorMatrix type="matrix" values="0 0 0 0 0.808594 0 0 0 0 0.858173 0 0 0 0 0.9375 0 0 0 1 0"/>
<feBlend mode="normal" in2="BackgroundImageFix" result="effect1_dropShadow_138_246"/>
<feBlend mode="normal" in="SourceGraphic" in2="effect1_dropShadow_138_246" result="shape"/>
<feColorMatrix in="SourceAlpha" type="matrix" values="0 0 0 0 0 0 0 0 0 0 0 0 0 0 0 0 0 0 127 0" result="hardAlpha"/>
<feOffset dx="3" dy="3"/>
<feGaussianBlur stdDeviation="5"/>
<feComposite in2="hardAlpha" operator="arithmetic" k2="-1" k3="1"/>
<feColorMatrix type="matrix" values="0 0 0 0 1 0 0 0 0 1 0 0 0 0 1 0 0 0 0.72 0"/>
<feBlend mode="normal" in2="shape" result="effect2_innerShadow_138_246"/>
</filter>
<linearGradient id="paint0_linear_138_246" x1="259.153" y1="578" x2="236.307" y2="497.524" gradientUnits="userSpaceOnUse">
<stop stop-color="#CDDCF7"/>
<stop offset="1" stop-color="white"/>
</linearGradient>
</defs>
</svg>
