<svg width="45" height="45" viewBox="0 0 45 45" fill="none" xmlns="http://www.w3.org/2000/svg">
<circle cx="22.5" cy="22.5" r="22.5" fill="white"/>
<path d="M27.7941 17.2058C29.9002 17.2058 31.9201 18.0425 33.4094 19.5317C34.8986 21.021 35.7353 23.0409 35.7353 25.147V34.4117H30.4412V25.147C30.4412 24.4449 30.1623 23.7717 29.6659 23.2752C29.1694 22.7788 28.4962 22.4999 27.7941 22.4999C27.0921 22.4999 26.4188 22.7788 25.9224 23.2752C25.4259 23.7717 25.1471 24.4449 25.1471 25.147V34.4117H19.8529V25.147C19.8529 23.0409 20.6896 21.021 22.1789 19.5317C23.6681 18.0425 25.688 17.2058 27.7941 17.2058V17.2058Z" stroke="#5196FF" stroke-width="2" stroke-linecap="round" stroke-linejoin="round"/>
<path d="M14.5588 18.5295H9.26471V34.4119H14.5588V18.5295Z" stroke="#5196FF" stroke-width="2" stroke-linecap="round" stroke-linejoin="round"/>
<path d="M11.9118 14.5588C13.3737 14.5588 14.5588 13.3736 14.5588 11.9117C14.5588 10.4498 13.3737 9.26465 11.9118 9.26465C10.4498 9.26465 9.26471 10.4498 9.26471 11.9117C9.26471 13.3736 10.4498 14.5588 11.9118 14.5588Z" stroke="#5196FF" stroke-width="2" stroke-linecap="round" stroke-linejoin="round"/>
</svg>
