<svg width="420" height="251" viewBox="0 0 420 251" fill="none" xmlns="http://www.w3.org/2000/svg">
<path d="M0 51.4682C0 24.0404 22.0956 1.73263 49.5222 1.47053L203.406 0L370.449 1.49909C397.887 1.74533 420 24.0579 420 51.4971V189.28C420 216.562 398.129 238.808 370.85 239.272L210.507 242L49.1536 239.269C21.8733 238.807 0 216.56 0 189.276V51.4682Z" fill="white"/>
<path d="M60.5528 65.336C59.1928 65.336 57.8728 65.168 56.5928 64.832C55.3128 64.496 54.2728 64.048 53.4728 63.488L55.0328 59.984C55.7848 60.48 56.6568 60.88 57.6488 61.184C58.6408 61.488 59.6168 61.64 60.5768 61.64C62.4008 61.64 63.3128 61.184 63.3128 60.272C63.3128 59.792 63.0488 59.44 62.5208 59.216C62.0088 58.976 61.1768 58.728 60.0247 58.472C58.7608 58.2 57.7048 57.912 56.8568 57.608C56.0088 57.288 55.2808 56.784 54.6728 56.096C54.0648 55.408 53.7607 54.48 53.7607 53.312C53.7607 52.288 54.0408 51.368 54.6008 50.552C55.1608 49.72 55.9928 49.064 57.0968 48.584C58.2168 48.104 59.5848 47.864 61.2008 47.864C62.3048 47.864 63.3928 47.992 64.4648 48.248C65.5368 48.488 66.4808 48.848 67.2968 49.328L65.8328 52.856C64.2328 51.992 62.6808 51.56 61.1768 51.56C60.2328 51.56 59.5448 51.704 59.1128 51.992C58.6808 52.264 58.4648 52.624 58.4648 53.072C58.4648 53.52 58.7208 53.856 59.2328 54.08C59.7448 54.304 60.5688 54.536 61.7048 54.776C62.9848 55.048 64.0408 55.344 64.8728 55.664C65.7208 55.968 66.4488 56.464 67.0568 57.152C67.6808 57.824 67.9928 58.744 67.9928 59.912C67.9928 60.92 67.7128 61.832 67.1528 62.648C66.5928 63.464 65.7528 64.12 64.6328 64.616C63.5128 65.096 62.1528 65.336 60.5528 65.336ZM80.4478 64.472C80.0638 64.712 79.5918 64.896 79.0318 65.024C78.4878 65.152 77.9038 65.216 77.2798 65.216C75.5838 65.216 74.2798 64.8 73.3678 63.968C72.4558 63.136 71.9998 61.896 71.9998 60.248V55.88H70.1038V52.472H71.9998V49.088H76.5598V52.472H79.5358V55.88H76.5598V60.2C76.5598 60.664 76.6798 61.032 76.9198 61.304C77.1758 61.56 77.5118 61.688 77.9278 61.688C78.4558 61.688 78.9198 61.552 79.3198 61.28L80.4478 64.472ZM89.2502 51.776C91.4102 51.776 93.0582 52.272 94.1942 53.264C95.3302 54.24 95.8982 55.744 95.8982 57.776V65H91.6502V63.32C90.9942 64.584 89.7142 65.216 87.8102 65.216C86.8022 65.216 85.9302 65.04 85.1942 64.688C84.4582 64.336 83.8982 63.864 83.5142 63.272C83.1462 62.664 82.9622 61.976 82.9622 61.208C82.9622 59.976 83.4342 59.024 84.3782 58.352C85.3222 57.664 86.7782 57.32 88.7462 57.32H91.3382C91.2582 55.944 90.3382 55.256 88.5782 55.256C87.9542 55.256 87.3222 55.36 86.6822 55.568C86.0422 55.76 85.4982 56.032 85.0502 56.384L83.5142 53.288C84.2342 52.808 85.1062 52.44 86.1302 52.184C87.1702 51.912 88.2102 51.776 89.2502 51.776ZM89.0822 62.336C89.6102 62.336 90.0742 62.208 90.4742 61.952C90.8742 61.696 91.1622 61.32 91.3382 60.824V59.696H89.3702C88.0422 59.696 87.3782 60.136 87.3782 61.016C87.3782 61.416 87.5302 61.736 87.8342 61.976C88.1382 62.216 88.5542 62.336 89.0822 62.336ZM104.621 53.552C105.085 52.96 105.685 52.52 106.421 52.232C107.173 51.928 108.029 51.776 108.989 51.776V55.88C108.573 55.832 108.229 55.808 107.957 55.808C106.981 55.808 106.213 56.072 105.653 56.6C105.109 57.128 104.837 57.936 104.837 59.024V65H100.277V51.992H104.621V53.552ZM121.745 64.472C121.361 64.712 120.889 64.896 120.329 65.024C119.785 65.152 119.201 65.216 118.577 65.216C116.881 65.216 115.577 64.8 114.665 63.968C113.753 63.136 113.297 61.896 113.297 60.248V55.88H111.401V52.472H113.297V49.088H117.857V52.472H120.833V55.88H117.857V60.2C117.857 60.664 117.977 61.032 118.217 61.304C118.473 61.56 118.809 61.688 119.225 61.688C119.753 61.688 120.217 61.552 120.617 61.28L121.745 64.472ZM139.607 65.336C138.247 65.336 136.927 65.168 135.647 64.832C134.367 64.496 133.327 64.048 132.527 63.488L134.087 59.984C134.839 60.48 135.711 60.88 136.703 61.184C137.695 61.488 138.671 61.64 139.631 61.64C141.455 61.64 142.367 61.184 142.367 60.272C142.367 59.792 142.103 59.44 141.575 59.216C141.063 58.976 140.231 58.728 139.079 58.472C137.815 58.2 136.759 57.912 135.911 57.608C135.063 57.288 134.335 56.784 133.727 56.096C133.119 55.408 132.815 54.48 132.815 53.312C132.815 52.288 133.095 51.368 133.655 50.552C134.215 49.72 135.047 49.064 136.151 48.584C137.271 48.104 138.639 47.864 140.255 47.864C141.359 47.864 142.447 47.992 143.519 48.248C144.591 48.488 145.535 48.848 146.351 49.328L144.887 52.856C143.287 51.992 141.735 51.56 140.231 51.56C139.287 51.56 138.599 51.704 138.167 51.992C137.735 52.264 137.519 52.624 137.519 53.072C137.519 53.52 137.775 53.856 138.287 54.08C138.799 54.304 139.623 54.536 140.759 54.776C142.039 55.048 143.095 55.344 143.927 55.664C144.775 55.968 145.503 56.464 146.111 57.152C146.735 57.824 147.047 58.744 147.047 59.912C147.047 60.92 146.767 61.832 146.207 62.648C145.647 63.464 144.807 64.12 143.687 64.616C142.567 65.096 141.207 65.336 139.607 65.336ZM150.743 48.2H155.495V65H150.743V48.2ZM168.055 48.2C169.575 48.2 170.895 48.456 172.015 48.968C173.135 49.464 173.999 50.184 174.607 51.128C175.215 52.056 175.519 53.152 175.519 54.416C175.519 55.68 175.215 56.776 174.607 57.704C173.999 58.632 173.135 59.352 172.015 59.864C170.895 60.36 169.575 60.608 168.055 60.608H165.127V65H160.375V48.2H168.055ZM167.767 56.864C168.743 56.864 169.479 56.656 169.975 56.24C170.471 55.808 170.719 55.2 170.719 54.416C170.719 53.632 170.471 53.024 169.975 52.592C169.479 52.16 168.743 51.944 167.767 51.944H165.127V56.864H167.767ZM187.839 51.992H192.399V65H187.839V51.992ZM190.119 50.552C189.287 50.552 188.615 50.32 188.103 49.856C187.591 49.392 187.335 48.816 187.335 48.128C187.335 47.44 187.591 46.864 188.103 46.4C188.615 45.936 189.287 45.704 190.119 45.704C190.951 45.704 191.623 45.928 192.135 46.376C192.647 46.808 192.903 47.368 192.903 48.056C192.903 48.776 192.647 49.376 192.135 49.856C191.623 50.32 190.951 50.552 190.119 50.552ZM205.334 51.776C206.95 51.776 208.246 52.256 209.222 53.216C210.214 54.176 210.71 55.624 210.71 57.56V65H206.15V58.304C206.15 56.528 205.438 55.64 204.014 55.64C203.23 55.64 202.598 55.896 202.118 56.408C201.654 56.92 201.422 57.688 201.422 58.712V65H196.862V51.992H201.206V53.408C201.718 52.88 202.326 52.48 203.03 52.208C203.734 51.92 204.502 51.776 205.334 51.776ZM238.942 65L238.894 56.096L234.574 63.344H232.462L228.166 56.336V65H223.774V48.2H227.686L233.59 57.896L239.35 48.2H243.262L243.31 65H238.942ZM261.252 58.52C261.252 58.552 261.228 58.928 261.18 59.648H251.724C251.916 60.32 252.284 60.84 252.828 61.208C253.388 61.56 254.084 61.736 254.916 61.736C255.54 61.736 256.076 61.648 256.524 61.472C256.988 61.296 257.452 61.008 257.916 60.608L260.316 63.104C259.052 64.512 257.204 65.216 254.772 65.216C253.252 65.216 251.916 64.928 250.764 64.352C249.612 63.776 248.716 62.976 248.076 61.952C247.452 60.928 247.14 59.768 247.14 58.472C247.14 57.192 247.444 56.048 248.052 55.04C248.676 54.016 249.532 53.216 250.62 52.64C251.708 52.064 252.932 51.776 254.292 51.776C255.588 51.776 256.764 52.048 257.82 52.592C258.876 53.12 259.708 53.896 260.316 54.92C260.94 55.928 261.252 57.128 261.252 58.52ZM254.316 55.016C253.612 55.016 253.02 55.216 252.54 55.616C252.076 56.016 251.78 56.56 251.652 57.248H256.98C256.852 56.56 256.548 56.016 256.068 55.616C255.604 55.216 255.02 55.016 254.316 55.016ZM273.831 64.472C273.447 64.712 272.975 64.896 272.415 65.024C271.871 65.152 271.287 65.216 270.663 65.216C268.967 65.216 267.663 64.8 266.751 63.968C265.839 63.136 265.383 61.896 265.383 60.248V55.88H263.487V52.472H265.383V49.088H269.943V52.472H272.919V55.88H269.943V60.2C269.943 60.664 270.063 61.032 270.303 61.304C270.559 61.56 270.895 61.688 271.311 61.688C271.839 61.688 272.303 61.552 272.703 61.28L273.831 64.472ZM282.633 51.776C284.793 51.776 286.441 52.272 287.577 53.264C288.713 54.24 289.281 55.744 289.281 57.776V65H285.033V63.32C284.377 64.584 283.097 65.216 281.193 65.216C280.185 65.216 279.313 65.04 278.577 64.688C277.841 64.336 277.281 63.864 276.897 63.272C276.529 62.664 276.345 61.976 276.345 61.208C276.345 59.976 276.817 59.024 277.761 58.352C278.705 57.664 280.161 57.32 282.129 57.32H284.721C284.641 55.944 283.721 55.256 281.961 55.256C281.337 55.256 280.705 55.36 280.065 55.568C279.425 55.76 278.881 56.032 278.433 56.384L276.897 53.288C277.617 52.808 278.489 52.44 279.513 52.184C280.553 51.912 281.593 51.776 282.633 51.776ZM282.465 62.336C282.993 62.336 283.457 62.208 283.857 61.952C284.257 61.696 284.545 61.32 284.721 60.824V59.696H282.753C281.425 59.696 280.761 60.136 280.761 61.016C280.761 61.416 280.913 61.736 281.217 61.976C281.521 62.216 281.937 62.336 282.465 62.336ZM307.129 51.992L301.753 65H297.049L291.697 51.992H296.377L299.497 59.936L302.785 51.992H307.129ZM322.752 58.52C322.752 58.552 322.728 58.928 322.68 59.648H313.224C313.416 60.32 313.784 60.84 314.328 61.208C314.888 61.56 315.584 61.736 316.416 61.736C317.04 61.736 317.576 61.648 318.024 61.472C318.488 61.296 318.952 61.008 319.416 60.608L321.816 63.104C320.552 64.512 318.704 65.216 316.272 65.216C314.752 65.216 313.416 64.928 312.264 64.352C311.112 63.776 310.216 62.976 309.576 61.952C308.952 60.928 308.64 59.768 308.64 58.472C308.64 57.192 308.944 56.048 309.552 55.04C310.176 54.016 311.032 53.216 312.12 52.64C313.208 52.064 314.432 51.776 315.792 51.776C317.088 51.776 318.264 52.048 319.32 52.592C320.376 53.12 321.208 53.896 321.816 54.92C322.44 55.928 322.752 57.128 322.752 58.52ZM315.816 55.016C315.112 55.016 314.52 55.216 314.04 55.616C313.576 56.016 313.28 56.56 313.152 57.248H318.48C318.352 56.56 318.048 56.016 317.568 55.616C317.104 55.216 316.52 55.016 315.816 55.016ZM330.699 53.552C331.163 52.96 331.763 52.52 332.499 52.232C333.251 51.928 334.107 51.776 335.067 51.776V55.88C334.651 55.832 334.307 55.808 334.035 55.808C333.059 55.808 332.291 56.072 331.731 56.6C331.187 57.128 330.915 57.936 330.915 59.024V65H326.355V51.992H330.699V53.552ZM343.2 65.216C342.112 65.216 341.04 65.096 339.984 64.856C338.928 64.6 338.08 64.272 337.44 63.872L338.808 60.752C339.4 61.12 340.104 61.416 340.92 61.64C341.736 61.848 342.544 61.952 343.344 61.952C344.08 61.952 344.6 61.88 344.904 61.736C345.224 61.576 345.384 61.352 345.384 61.064C345.384 60.776 345.192 60.576 344.808 60.464C344.44 60.336 343.848 60.216 343.032 60.104C341.992 59.976 341.104 59.808 340.368 59.6C339.648 59.392 339.024 59.008 338.496 58.448C337.968 57.888 337.704 57.104 337.704 56.096C337.704 55.264 337.952 54.528 338.448 53.888C338.944 53.232 339.664 52.72 340.608 52.352C341.568 51.968 342.712 51.776 344.04 51.776C344.984 51.776 345.92 51.872 346.848 52.064C347.776 52.256 348.552 52.528 349.176 52.88L347.808 55.976C346.656 55.336 345.408 55.016 344.064 55.016C343.344 55.016 342.816 55.104 342.48 55.28C342.144 55.44 341.976 55.656 341.976 55.928C341.976 56.232 342.16 56.448 342.528 56.576C342.896 56.688 343.504 56.808 344.352 56.936C345.424 57.096 346.312 57.28 347.016 57.488C347.72 57.696 348.328 58.08 348.84 58.64C349.368 59.184 349.632 59.952 349.632 60.944C349.632 61.76 349.384 62.496 348.888 63.152C348.392 63.792 347.656 64.296 346.68 64.664C345.72 65.032 344.56 65.216 343.2 65.216ZM366.393 58.52C366.393 58.552 366.369 58.928 366.321 59.648H356.865C357.057 60.32 357.425 60.84 357.969 61.208C358.529 61.56 359.225 61.736 360.057 61.736C360.681 61.736 361.217 61.648 361.665 61.472C362.129 61.296 362.593 61.008 363.057 60.608L365.457 63.104C364.193 64.512 362.345 65.216 359.913 65.216C358.393 65.216 357.057 64.928 355.905 64.352C354.753 63.776 353.857 62.976 353.217 61.952C352.593 60.928 352.281 59.768 352.281 58.472C352.281 57.192 352.585 56.048 353.193 55.04C353.817 54.016 354.673 53.216 355.761 52.64C356.849 52.064 358.073 51.776 359.433 51.776C360.729 51.776 361.905 52.048 362.961 52.592C364.017 53.12 364.849 53.896 365.457 54.92C366.081 55.928 366.393 57.128 366.393 58.52ZM359.457 55.016C358.753 55.016 358.161 55.216 357.681 55.616C357.217 56.016 356.921 56.56 356.793 57.248H362.121C361.993 56.56 361.689 56.016 361.209 55.616C360.745 55.216 360.161 55.016 359.457 55.016Z" fill="#4A4A4A"/>
<path d="M88.7126 105V119H87.2926V107.8L81.7926 117.22H81.0926L75.5926 107.86V119H74.1726V105H75.3926L81.4726 115.38L87.4926 105H88.7126ZM94.4741 108.48H95.8941V119H94.4741V108.48ZM95.1941 106.18C94.9008 106.18 94.6541 106.08 94.4541 105.88C94.2541 105.68 94.1541 105.44 94.1541 105.16C94.1541 104.893 94.2541 104.66 94.4541 104.46C94.6541 104.26 94.9008 104.16 95.1941 104.16C95.4875 104.16 95.7341 104.26 95.9341 104.46C96.1341 104.647 96.2341 104.873 96.2341 105.14C96.2341 105.433 96.1341 105.68 95.9341 105.88C95.7341 106.08 95.4875 106.18 95.1941 106.18ZM106.705 108.4C108.025 108.4 109.072 108.787 109.845 109.56C110.632 110.32 111.025 111.433 111.025 112.9V119H109.605V113.04C109.605 111.947 109.332 111.113 108.785 110.54C108.239 109.967 107.459 109.68 106.445 109.68C105.312 109.68 104.412 110.02 103.745 110.7C103.092 111.367 102.765 112.293 102.765 113.48V119H101.345V108.48H102.705V110.42C103.092 109.78 103.625 109.287 104.305 108.94C104.999 108.58 105.799 108.4 106.705 108.4Z" fill="#767676"/>
<path d="M122.335 112.96H127.575V114.2H122.335V112.96ZM235.636 108.4C236.623 108.4 237.516 108.627 238.316 109.08C239.116 109.52 239.743 110.147 240.196 110.96C240.65 111.773 240.876 112.7 240.876 113.74C240.876 114.793 240.65 115.727 240.196 116.54C239.743 117.353 239.116 117.987 238.316 118.44C237.53 118.88 236.636 119.1 235.636 119.1C234.783 119.1 234.01 118.927 233.316 118.58C232.636 118.22 232.076 117.7 231.636 117.02V122.88H230.216V108.48H231.576V110.56C232.003 109.867 232.563 109.333 233.256 108.96C233.963 108.587 234.756 108.4 235.636 108.4ZM235.536 117.84C236.27 117.84 236.936 117.673 237.536 117.34C238.136 116.993 238.603 116.507 238.936 115.88C239.283 115.253 239.456 114.54 239.456 113.74C239.456 112.94 239.283 112.233 238.936 111.62C238.603 110.993 238.136 110.507 237.536 110.16C236.936 109.813 236.27 109.64 235.536 109.64C234.79 109.64 234.116 109.813 233.516 110.16C232.93 110.507 232.463 110.993 232.116 111.62C231.783 112.233 231.616 112.94 231.616 113.74C231.616 114.54 231.783 115.253 232.116 115.88C232.463 116.507 232.93 116.993 233.516 117.34C234.116 117.673 234.79 117.84 235.536 117.84ZM254.431 114.18H245.631C245.711 115.273 246.131 116.16 246.891 116.84C247.651 117.507 248.611 117.84 249.771 117.84C250.424 117.84 251.024 117.727 251.571 117.5C252.118 117.26 252.591 116.913 252.991 116.46L253.791 117.38C253.324 117.94 252.738 118.367 252.031 118.66C251.338 118.953 250.571 119.1 249.731 119.1C248.651 119.1 247.691 118.873 246.851 118.42C246.024 117.953 245.378 117.313 244.911 116.5C244.444 115.687 244.211 114.767 244.211 113.74C244.211 112.713 244.431 111.793 244.871 110.98C245.324 110.167 245.938 109.533 246.711 109.08C247.498 108.627 248.378 108.4 249.351 108.4C250.324 108.4 251.198 108.627 251.971 109.08C252.744 109.533 253.351 110.167 253.791 110.98C254.231 111.78 254.451 112.7 254.451 113.74L254.431 114.18ZM249.351 109.62C248.338 109.62 247.484 109.947 246.791 110.6C246.111 111.24 245.724 112.08 245.631 113.12H253.091C252.998 112.08 252.604 111.24 251.911 110.6C251.231 109.947 250.378 109.62 249.351 109.62ZM260.201 110.54C260.535 109.833 261.028 109.3 261.681 108.94C262.348 108.58 263.168 108.4 264.141 108.4V109.78L263.801 109.76C262.695 109.76 261.828 110.1 261.201 110.78C260.575 111.46 260.261 112.413 260.261 113.64V119H258.841V108.48H260.201V110.54ZM288.223 108.4C289.543 108.4 290.576 108.78 291.323 109.54C292.083 110.3 292.463 111.42 292.463 112.9V119H291.043V113.04C291.043 111.947 290.776 111.113 290.243 110.54C289.723 109.967 288.983 109.68 288.023 109.68C286.93 109.68 286.07 110.02 285.443 110.7C284.816 111.367 284.503 112.293 284.503 113.48V119H283.083V113.04C283.083 111.947 282.816 111.113 282.283 110.54C281.763 109.967 281.016 109.68 280.043 109.68C278.963 109.68 278.103 110.02 277.463 110.7C276.836 111.367 276.523 112.293 276.523 113.48V119H275.103V108.48H276.463V110.4C276.836 109.76 277.356 109.267 278.023 108.92C278.69 108.573 279.456 108.4 280.323 108.4C281.203 108.4 281.963 108.587 282.603 108.96C283.256 109.333 283.743 109.887 284.063 110.62C284.45 109.927 285.003 109.387 285.723 109C286.456 108.6 287.29 108.4 288.223 108.4ZM302.153 119.1C301.14 119.1 300.226 118.873 299.413 118.42C298.6 117.953 297.96 117.313 297.493 116.5C297.026 115.687 296.793 114.767 296.793 113.74C296.793 112.713 297.026 111.793 297.493 110.98C297.96 110.167 298.6 109.533 299.413 109.08C300.226 108.627 301.14 108.4 302.153 108.4C303.166 108.4 304.08 108.627 304.893 109.08C305.706 109.533 306.34 110.167 306.793 110.98C307.26 111.793 307.493 112.713 307.493 113.74C307.493 114.767 307.26 115.687 306.793 116.5C306.34 117.313 305.706 117.953 304.893 118.42C304.08 118.873 303.166 119.1 302.153 119.1ZM302.153 117.84C302.9 117.84 303.566 117.673 304.153 117.34C304.753 116.993 305.22 116.507 305.553 115.88C305.886 115.253 306.053 114.54 306.053 113.74C306.053 112.94 305.886 112.227 305.553 111.6C305.22 110.973 304.753 110.493 304.153 110.16C303.566 109.813 302.9 109.64 302.153 109.64C301.406 109.64 300.733 109.813 300.133 110.16C299.546 110.493 299.08 110.973 298.733 111.6C298.4 112.227 298.233 112.94 298.233 113.74C298.233 114.54 298.4 115.253 298.733 115.88C299.08 116.507 299.546 116.993 300.133 117.34C300.733 117.673 301.406 117.84 302.153 117.84ZM317.252 108.4C318.572 108.4 319.619 108.787 320.392 109.56C321.179 110.32 321.572 111.433 321.572 112.9V119H320.152V113.04C320.152 111.947 319.879 111.113 319.332 110.54C318.785 109.967 318.005 109.68 316.992 109.68C315.859 109.68 314.959 110.02 314.292 110.7C313.639 111.367 313.312 112.293 313.312 113.48V119H311.892V108.48H313.252V110.42C313.639 109.78 314.172 109.287 314.852 108.94C315.545 108.58 316.345 108.4 317.252 108.4ZM332.467 118.36C332.201 118.6 331.867 118.787 331.467 118.92C331.081 119.04 330.674 119.1 330.247 119.1C329.261 119.1 328.501 118.833 327.967 118.3C327.434 117.767 327.167 117.013 327.167 116.04V109.68H325.287V108.48H327.167V106.18H328.587V108.48H331.787V109.68H328.587V115.96C328.587 116.587 328.741 117.067 329.047 117.4C329.367 117.72 329.821 117.88 330.407 117.88C330.701 117.88 330.981 117.833 331.247 117.74C331.527 117.647 331.767 117.513 331.967 117.34L332.467 118.36ZM341.912 108.4C343.232 108.4 344.279 108.787 345.052 109.56C345.839 110.32 346.232 111.433 346.232 112.9V119H344.812V113.04C344.812 111.947 344.539 111.113 343.992 110.54C343.446 109.967 342.666 109.68 341.652 109.68C340.519 109.68 339.619 110.02 338.952 110.7C338.299 111.367 337.972 112.293 337.972 113.48V119H336.552V104.16H337.972V110.32C338.359 109.707 338.892 109.233 339.572 108.9C340.252 108.567 341.032 108.4 341.912 108.4Z" fill="#4A4A4A"/>
<path d="M149.242 104.809C149.579 105.146 149.863 105.568 150.093 106.074H152.508V107.983H150.553V108.282C150.553 109.447 150.246 110.452 149.633 111.295C149.035 112.138 148.176 112.767 147.057 113.181L150.875 119H146.873L143.446 113.733H138.915V110.743H143.193C144.404 110.743 145.301 110.49 145.884 109.984C146.482 109.478 146.789 108.811 146.804 107.983H137.972V106.074H146.275C145.662 105.215 144.588 104.794 143.055 104.809H137.972V102.9H152.508V104.809H149.242ZM168.075 115.964V119H155.908V116.585L162.118 110.72C162.778 110.091 163.222 109.555 163.452 109.11C163.682 108.65 163.797 108.198 163.797 107.753C163.797 107.109 163.575 106.618 163.13 106.281C162.701 105.928 162.065 105.752 161.221 105.752C160.516 105.752 159.88 105.89 159.312 106.166C158.745 106.427 158.27 106.825 157.886 107.362L155.172 105.614C155.801 104.679 156.667 103.95 157.771 103.429C158.875 102.892 160.14 102.624 161.566 102.624C162.762 102.624 163.805 102.823 164.694 103.222C165.599 103.605 166.297 104.157 166.787 104.878C167.293 105.583 167.546 106.419 167.546 107.385C167.546 108.259 167.362 109.079 166.994 109.846C166.626 110.613 165.913 111.487 164.855 112.468L161.152 115.964H168.075ZM177.968 119.276C176.634 119.276 175.446 118.946 174.403 118.287C173.36 117.628 172.54 116.677 171.942 115.435C171.359 114.178 171.068 112.683 171.068 110.95C171.068 109.217 171.359 107.73 171.942 106.488C172.54 105.231 173.36 104.272 174.403 103.613C175.446 102.954 176.634 102.624 177.968 102.624C179.302 102.624 180.49 102.954 181.533 103.613C182.576 104.272 183.388 105.231 183.971 106.488C184.569 107.73 184.868 109.217 184.868 110.95C184.868 112.683 184.569 114.178 183.971 115.435C183.388 116.677 182.576 117.628 181.533 118.287C180.49 118.946 179.302 119.276 177.968 119.276ZM177.968 116.125C178.949 116.125 179.716 115.703 180.268 114.86C180.835 114.017 181.119 112.713 181.119 110.95C181.119 109.187 180.835 107.883 180.268 107.04C179.716 106.197 178.949 105.775 177.968 105.775C177.002 105.775 176.235 106.197 175.668 107.04C175.116 107.883 174.84 109.187 174.84 110.95C174.84 112.713 175.116 114.017 175.668 114.86C176.235 115.703 177.002 116.125 177.968 116.125ZM195.078 119.276C193.744 119.276 192.556 118.946 191.513 118.287C190.471 117.628 189.65 116.677 189.052 115.435C188.47 114.178 188.178 112.683 188.178 110.95C188.178 109.217 188.47 107.73 189.052 106.488C189.65 105.231 190.471 104.272 191.513 103.613C192.556 102.954 193.744 102.624 195.078 102.624C196.412 102.624 197.601 102.954 198.643 103.613C199.686 104.272 200.499 105.231 201.081 106.488C201.679 107.73 201.978 109.217 201.978 110.95C201.978 112.683 201.679 114.178 201.081 115.435C200.499 116.677 199.686 117.628 198.643 118.287C197.601 118.946 196.412 119.276 195.078 119.276ZM195.078 116.125C196.06 116.125 196.826 115.703 197.378 114.86C197.946 114.017 198.229 112.713 198.229 110.95C198.229 109.187 197.946 107.883 197.378 107.04C196.826 106.197 196.06 105.775 195.078 105.775C194.112 105.775 193.346 106.197 192.778 107.04C192.226 107.883 191.95 109.187 191.95 110.95C191.95 112.713 192.226 114.017 192.778 114.86C193.346 115.703 194.112 116.125 195.078 116.125ZM212.189 119.276C210.855 119.276 209.666 118.946 208.624 118.287C207.581 117.628 206.761 116.677 206.163 115.435C205.58 114.178 205.289 112.683 205.289 110.95C205.289 109.217 205.58 107.73 206.163 106.488C206.761 105.231 207.581 104.272 208.624 103.613C209.666 102.954 210.855 102.624 212.189 102.624C213.523 102.624 214.711 102.954 215.754 103.613C216.796 104.272 217.609 105.231 218.192 106.488C218.79 107.73 219.089 109.217 219.089 110.95C219.089 112.683 218.79 114.178 218.192 115.435C217.609 116.677 216.796 117.628 215.754 118.287C214.711 118.946 213.523 119.276 212.189 119.276ZM212.189 116.125C213.17 116.125 213.937 115.703 214.489 114.86C215.056 114.017 215.34 112.713 215.34 110.95C215.34 109.187 215.056 107.883 214.489 107.04C213.937 106.197 213.17 105.775 212.189 105.775C211.223 105.775 210.456 106.197 209.889 107.04C209.337 107.883 209.061 109.187 209.061 110.95C209.061 112.713 209.337 114.017 209.889 114.86C210.456 115.703 211.223 116.125 212.189 116.125Z" fill="#4E6DFF"/>
<g filter="url(#filter0_di_138_240)">
<rect x="136" y="159" width="148" height="52" rx="20" fill="url(#paint0_linear_138_240)"/>
<path d="M168.553 179.134V191H166.173V179.134H168.553ZM175.715 181.446C176.837 181.446 177.744 181.803 178.435 182.517C179.127 183.22 179.472 184.206 179.472 185.475V191H177.092V185.798C177.092 185.05 176.905 184.478 176.531 184.081C176.157 183.673 175.647 183.469 175.001 183.469C174.344 183.469 173.823 183.673 173.437 184.081C173.063 184.478 172.876 185.05 172.876 185.798V191H170.496V181.582H172.876V182.755C173.194 182.347 173.596 182.03 174.083 181.803C174.582 181.565 175.126 181.446 175.715 181.446ZM185.255 188.807L187.635 181.582H190.168L186.683 191H183.793L180.325 181.582H182.875L185.255 188.807ZM199.851 186.087C199.851 186.427 199.829 186.733 199.783 187.005H192.898C192.955 187.685 193.193 188.218 193.612 188.603C194.032 188.988 194.547 189.181 195.159 189.181C196.043 189.181 196.672 188.801 197.046 188.042H199.613C199.341 188.949 198.82 189.697 198.049 190.286C197.279 190.864 196.332 191.153 195.21 191.153C194.304 191.153 193.488 190.955 192.762 190.558C192.048 190.15 191.487 189.578 191.079 188.841C190.683 188.104 190.484 187.254 190.484 186.291C190.484 185.316 190.683 184.461 191.079 183.724C191.476 182.987 192.031 182.421 192.745 182.024C193.459 181.627 194.281 181.429 195.21 181.429C196.106 181.429 196.905 181.622 197.607 182.007C198.321 182.392 198.871 182.942 199.256 183.656C199.653 184.359 199.851 185.169 199.851 186.087ZM197.386 185.407C197.375 184.795 197.154 184.308 196.723 183.945C196.293 183.571 195.766 183.384 195.142 183.384C194.553 183.384 194.054 183.565 193.646 183.928C193.25 184.279 193.006 184.772 192.915 185.407H197.386ZM204.785 191.153C204.014 191.153 203.323 191.017 202.711 190.745C202.099 190.462 201.611 190.082 201.249 189.606C200.897 189.13 200.705 188.603 200.671 188.025H203.068C203.113 188.388 203.289 188.688 203.595 188.926C203.912 189.164 204.303 189.283 204.768 189.283C205.221 189.283 205.572 189.192 205.822 189.011C206.082 188.83 206.213 188.597 206.213 188.314C206.213 188.008 206.054 187.781 205.737 187.634C205.431 187.475 204.938 187.305 204.258 187.124C203.555 186.954 202.977 186.778 202.524 186.597C202.082 186.416 201.696 186.138 201.368 185.764C201.05 185.39 200.892 184.886 200.892 184.251C200.892 183.73 201.039 183.254 201.334 182.823C201.64 182.392 202.07 182.052 202.626 181.803C203.192 181.554 203.855 181.429 204.615 181.429C205.737 181.429 206.632 181.712 207.301 182.279C207.969 182.834 208.338 183.588 208.406 184.54H206.128C206.094 184.166 205.935 183.871 205.652 183.656C205.38 183.429 205.011 183.316 204.547 183.316C204.116 183.316 203.782 183.395 203.544 183.554C203.317 183.713 203.204 183.934 203.204 184.217C203.204 184.534 203.362 184.778 203.68 184.948C203.997 185.107 204.49 185.271 205.159 185.441C205.839 185.611 206.4 185.787 206.842 185.968C207.284 186.149 207.663 186.433 207.981 186.818C208.309 187.192 208.479 187.691 208.491 188.314C208.491 188.858 208.338 189.345 208.032 189.776C207.737 190.207 207.306 190.547 206.74 190.796C206.184 191.034 205.533 191.153 204.785 191.153ZM212.807 183.537V188.093C212.807 188.41 212.881 188.643 213.028 188.79C213.187 188.926 213.448 188.994 213.81 188.994H214.915V191H213.419C211.413 191 210.41 190.025 210.41 188.076V183.537H209.288V181.582H210.41V179.253H212.807V181.582H214.915V183.537H212.807ZM225.081 181.446C226.203 181.446 227.11 181.803 227.801 182.517C228.492 183.22 228.838 184.206 228.838 185.475V191H226.458V185.798C226.458 185.05 226.271 184.478 225.897 184.081C225.523 183.673 225.013 183.469 224.367 183.469C223.71 183.469 223.188 183.673 222.803 184.081C222.429 184.478 222.242 185.05 222.242 185.798V191H219.862V181.582H222.242V182.755C222.559 182.347 222.962 182.03 223.449 181.803C223.948 181.565 224.492 181.446 225.081 181.446ZM234.875 191.153C233.969 191.153 233.153 190.955 232.427 190.558C231.702 190.15 231.13 189.578 230.71 188.841C230.302 188.104 230.098 187.254 230.098 186.291C230.098 185.328 230.308 184.478 230.727 183.741C231.158 183.004 231.742 182.438 232.478 182.041C233.215 181.633 234.037 181.429 234.943 181.429C235.85 181.429 236.672 181.633 237.408 182.041C238.145 182.438 238.723 183.004 239.142 183.741C239.573 184.478 239.788 185.328 239.788 186.291C239.788 187.254 239.567 188.104 239.125 188.841C238.695 189.578 238.105 190.15 237.357 190.558C236.621 190.955 235.793 191.153 234.875 191.153ZM234.875 189.079C235.306 189.079 235.708 188.977 236.082 188.773C236.468 188.558 236.774 188.24 237 187.821C237.227 187.402 237.34 186.892 237.34 186.291C237.34 185.396 237.102 184.71 236.626 184.234C236.162 183.747 235.589 183.503 234.909 183.503C234.229 183.503 233.657 183.747 233.192 184.234C232.739 184.71 232.512 185.396 232.512 186.291C232.512 187.186 232.733 187.878 233.175 188.365C233.629 188.841 234.195 189.079 234.875 189.079ZM254.182 181.582L251.428 191H248.861L247.144 184.421L245.427 191H242.843L240.072 181.582H242.486L244.152 188.756L245.954 181.582H248.47L250.238 188.739L251.904 181.582H254.182Z" fill="black"/>
</g>
<defs>
<filter id="filter0_di_138_240" x="96" y="119" width="228" height="132" filterUnits="userSpaceOnUse" color-interpolation-filters="sRGB">
<feFlood flood-opacity="0" result="BackgroundImageFix"/>
<feColorMatrix in="SourceAlpha" type="matrix" values="0 0 0 0 0 0 0 0 0 0 0 0 0 0 0 0 0 0 127 0" result="hardAlpha"/>
<feOffset/>
<feGaussianBlur stdDeviation="20"/>
<feComposite in2="hardAlpha" operator="out"/>
<feColorMatrix type="matrix" values="0 0 0 0 0.808594 0 0 0 0 0.858173 0 0 0 0 0.9375 0 0 0 1 0"/>
<feBlend mode="normal" in2="BackgroundImageFix" result="effect1_dropShadow_138_240"/>
<feBlend mode="normal" in="SourceGraphic" in2="effect1_dropShadow_138_240" result="shape"/>
<feColorMatrix in="SourceAlpha" type="matrix" values="0 0 0 0 0 0 0 0 0 0 0 0 0 0 0 0 0 0 127 0" result="hardAlpha"/>
<feOffset dx="3" dy="3"/>
<feGaussianBlur stdDeviation="5"/>
<feComposite in2="hardAlpha" operator="arithmetic" k2="-1" k3="1"/>
<feColorMatrix type="matrix" values="0 0 0 0 1 0 0 0 0 1 0 0 0 0 1 0 0 0 0.72 0"/>
<feBlend mode="normal" in2="shape" result="effect2_innerShadow_138_240"/>
</filter>
<linearGradient id="paint0_linear_138_240" x1="259.153" y1="211" x2="236.307" y2="130.524" gradientUnits="userSpaceOnUse">
<stop stop-color="#CDDCF7"/>
<stop offset="1" stop-color="white"/>
</linearGradient>
</defs>
</svg>
