<svg width="45" height="45" viewBox="0 0 45 45" fill="none" xmlns="http://www.w3.org/2000/svg">
<circle cx="22.5" cy="22.5" r="22.5" fill="white"/>
<g clip-path="url(#clip0_10_842)">
<path d="M36.45 15.1148C36.2928 14.4867 35.9726 13.9112 35.5217 13.4464C35.0709 12.9816 34.5054 12.644 33.8823 12.4677C31.6059 11.9119 22.5 11.9119 22.5 11.9119C22.5 11.9119 13.3941 11.9119 11.1176 12.5207C10.4946 12.697 9.92908 13.0345 9.47825 13.4993C9.02741 13.9641 8.70721 14.5396 8.54999 15.1677C8.13337 17.478 7.92957 19.8217 7.94117 22.1692C7.92632 24.5344 8.13013 26.8959 8.54999 29.2236C8.72332 29.8322 9.05069 30.3859 9.50048 30.831C9.95026 31.2762 10.5073 31.5978 11.1176 31.7648C13.3941 32.3736 22.5 32.3736 22.5 32.3736C22.5 32.3736 31.6059 32.3736 33.8823 31.7648C34.5054 31.5885 35.0709 31.251 35.5217 30.7862C35.9726 30.3214 36.2928 29.7459 36.45 29.1177C36.8634 26.8248 37.0672 24.4991 37.0588 22.1692C37.0737 19.804 36.8699 17.4425 36.45 15.1148V15.1148Z" stroke="#FF4444" stroke-width="2" stroke-linecap="round" stroke-linejoin="round"/>
<path d="M19.5221 26.4972L27.1324 22.1692L19.5221 17.8413V26.4972Z" stroke="#FF4444" stroke-width="2" stroke-linecap="round" stroke-linejoin="round"/>
</g>
<defs>
<clipPath id="clip0_10_842">
<rect width="31.7647" height="31.7647" fill="white" transform="translate(6.61765 6.61768)"/>
</clipPath>
</defs>
</svg>
